<?xml version="1.0" encoding="utf-8"?>
<!-- Generator: Adobe Illustrator 24.1.0, SVG Export Plug-In . SVG Version: 6.00 Build 0)  -->
<svg version="1.1" id="Layer_1" xmlns="http://www.w3.org/2000/svg" xmlns:xlink="http://www.w3.org/1999/xlink" x="0px" y="0px"
	 viewBox="0 0 247.6590729 182.0900726" style="enable-background:new 0 0 247.6590729 182.0900726;" xml:space="preserve">
<style type="text/css">
	.st0{fill:#CCCCCC;}
	.st1{fill:#FFE769;}
	.st2{fill:#333333;}
</style>
<g>
	<rect x="8.9781723" y="96.838829" class="st0" width="93.2885895" height="33.0053062"/>
	<rect x="8.9781723" y="96.838829" class="st1" width="7.3175745" height="33.0053062"/>
	<g>
		<path class="st2" d="M114.9384232,112.6935043h2.0410156v1.1923828h-2.0410156v2.3256836h-1.2675781v-2.3256836h-2.0517578
			v-1.1923828h2.0517578v-2.175293h1.2675781V112.6935043z"/>
		<path class="st2" d="M124.2221146,115.2931137l1.9863281-6.1176758h1.4941406l-2.8144531,7.8203125h-1.3164062
			l-2.8037109-7.8203125h1.4873047L124.2221146,115.2931137z"/>
		<path class="st2" d="M133.4281769,113.5045395h-3.2109375v2.40625h3.7539062v1.0849609h-5.1132812v-7.8203125h5.0761719v1.0957031
			h-3.7167969v2.1591797h3.2109375V113.5045395z"/>
		<path class="st2" d="M138.2250519,113.9879379H136.71138v3.0078125h-1.359375v-7.8203125h2.75
			c0.9023438,0,1.5986328,0.2026367,2.0898438,0.6074219c0.4902344,0.4052734,0.7353516,0.9912109,0.7353516,1.7578125
			c0,0.5234375-0.1259766,0.9614258-0.3789062,1.3144531c-0.2519531,0.3530273-0.6044922,0.6245117-1.0556641,0.8144531
			l1.7568359,3.2563477v0.0698242h-1.4560547L138.2250519,113.9879379z M136.71138,112.8922348h1.3964844
			c0.4580078,0,0.8164062-0.1152344,1.0742188-0.3466797c0.2578125-0.2304688,0.3867188-0.546875,0.3867188-0.9477539
			c0-0.4189453-0.1191406-0.7431641-0.3574219-0.972168s-0.59375-0.347168-1.0664062-0.3544922H136.71138V112.8922348z"/>
		<path class="st2" d="M147.8734894,110.2711411h-2.4384766v6.7246094H144.08638v-6.7246094h-2.4160156v-1.0957031h6.203125
			V110.2711411z"/>
		<path class="st2" d="M150.6078644,116.9957504h-1.3535156v-7.8203125h1.3535156V116.9957504z"/>
		<path class="st2" d="M158.5199738,114.449852c-0.078125,0.8344727-0.3867188,1.4853516-0.9238281,1.9521484
			c-0.5371094,0.4677734-1.2509766,0.7011719-2.1425781,0.7011719c-0.6230469,0-1.171875-0.1474609-1.6464844-0.4433594
			c-0.4746094-0.2949219-0.8398438-0.7148438-1.0976562-1.2592773s-0.3925781-1.1762695-0.4033203-1.8959961v-0.7304688
			c0-0.737793,0.1308594-1.3876953,0.3916016-1.949707c0.2617188-0.5620117,0.6367188-0.9956055,1.1259766-1.2998047
			c0.4882812-0.3041992,1.0537109-0.456543,1.6943359-0.456543c0.8632812,0,1.5576172,0.2333984,2.0839844,0.7011719
			c0.5263672,0.4667969,0.8320312,1.128418,0.9179688,1.984375h-1.3535156
			c-0.0644531-0.5620117-0.2275391-0.9677734-0.4912109-1.2167969c-0.2626953-0.2485352-0.6484375-0.3730469-1.1572266-0.3730469
			c-0.5908203,0-1.0449219,0.2158203-1.3613281,0.6479492c-0.3173828,0.4316406-0.4794922,1.0654297-0.4863281,1.9003906v0.6933594
			c0,0.8457031,0.1513672,1.4912109,0.4541016,1.9355469s0.7451172,0.6665039,1.3291016,0.6665039
			c0.5332031,0,0.9345703-0.1201172,1.203125-0.3598633s0.4384766-0.6391602,0.5097656-1.1977539H158.5199738z"/>
		<path class="st2" d="M164.3861847,115.1749496h-3.0292969l-0.6328125,1.8208008h-1.4130859l2.9541016-7.8203125h1.21875
			l2.9599609,7.8203125h-1.4179688L164.3861847,115.1749496z M161.7387238,114.0792465h2.2666016l-1.1328125-3.2441406
			L161.7387238,114.0792465z"/>
		<path class="st2" d="M168.9633331,115.9107895h3.5498047v1.0849609h-4.9091797v-7.8203125h1.359375V115.9107895z"/>
		<path class="st2" d="M178.2045441,114.0953598v2.9003906h-1.359375v-7.8203125h2.9921875
			c0.8730469,0,1.5673828,0.2275391,2.0810547,0.6831055c0.5136719,0.4550781,0.7705078,1.0571289,0.7705078,1.8061523
			c0,0.7675781-0.2519531,1.3642578-0.7548828,1.7910156c-0.5029297,0.4262695-1.2070312,0.6396484-2.1132812,0.6396484H178.2045441
			z M178.2045441,112.9996567h1.6328125c0.4824219,0,0.8515625-0.1137695,1.1054688-0.3408203
			c0.2548828-0.2275391,0.3818359-0.5561523,0.3818359-0.9858398c0-0.4223633-0.1289062-0.7602539-0.3867188-1.012207
			c-0.2578125-0.2529297-0.6123047-0.3823242-1.0634766-0.3896484h-1.6699219V112.9996567z"/>
		<path class="st2" d="M187.570755,115.1749496h-3.0292969l-0.6328125,1.8208008h-1.4130859l2.9541016-7.8203125h1.21875
			l2.9599609,7.8203125h-1.4179688L187.570755,115.1749496z M184.9232941,114.0792465h2.2666016l-1.1328125-3.2441406
			L184.9232941,114.0792465z"/>
		<path class="st2" d="M190.789505,116.9957504v-7.8203125h2.3095703c0.6914062,0,1.3046875,0.1538086,1.8398438,0.4619141
			s0.9492188,0.7446289,1.2431641,1.3105469s0.4404297,1.2138672,0.4404297,1.9443359v0.3920898
			c0,0.7412109-0.1474609,1.3930664-0.4433594,1.9550781c-0.2949219,0.5620117-0.7158203,0.9956055-1.2617188,1.2998047
			s-1.171875,0.456543-1.8779297,0.456543H190.789505z M192.14888,110.2711411v5.6396484h0.8857422
			c0.7128906,0,1.2597656-0.2226562,1.640625-0.6689453c0.3818359-0.4453125,0.5761719-1.0854492,0.5830078-1.9199219v-0.4350586
			c0-0.8486328-0.1845703-1.496582-0.5527344-1.9443359c-0.3691406-0.4477539-0.9042969-0.6713867-1.6064453-0.6713867H192.14888z"
			/>
		<path class="st2" d="M198.2504425,116.9957504v-7.8203125h2.3095703c0.6914062,0,1.3046875,0.1538086,1.8398438,0.4619141
			s0.9492188,0.7446289,1.2431641,1.3105469s0.4404297,1.2138672,0.4404297,1.9443359v0.3920898
			c0,0.7412109-0.1474609,1.3930664-0.4433594,1.9550781c-0.2949219,0.5620117-0.7158203,0.9956055-1.2617188,1.2998047
			s-1.171875,0.456543-1.8779297,0.456543H198.2504425z M199.6098175,110.2711411v5.6396484h0.8857422
			c0.7128906,0,1.2597656-0.2226562,1.640625-0.6689453c0.3818359-0.4453125,0.5761719-1.0854492,0.5830078-1.9199219v-0.4350586
			c0-0.8486328-0.1845703-1.496582-0.5527344-1.9443359c-0.3691406-0.4477539-0.9042969-0.6713867-1.6064453-0.6713867H199.6098175z
			"/>
		<path class="st2" d="M207.1459503,116.9957504h-1.3535156v-7.8203125h1.3535156V116.9957504z"/>
		<path class="st2" d="M215.2953644,116.9957504h-1.3583984l-3.4853516-5.5483398v5.5483398h-1.359375v-7.8203125h1.359375
			l3.4960938,5.5698242v-5.5698242h1.3476562V116.9957504z"/>
		<path class="st2" d="M223.1703644,115.9806137c-0.2832031,0.3686523-0.6748047,0.6479492-1.1757812,0.8378906
			c-0.5019531,0.1899414-1.0712891,0.284668-1.7089844,0.284668c-0.6542969,0-1.234375-0.1484375-1.7402344-0.4458008
			c-0.5039062-0.2973633-0.8935547-0.722168-1.1679688-1.2758789c-0.2734375-0.5527344-0.4160156-1.1982422-0.4267578-1.9360352
			v-0.6123047c0-1.1816406,0.2832031-2.1044922,0.8486328-2.769043c0.5654297-0.6640625,1.3554688-0.9960938,2.3691406-0.9960938
			c0.8691406,0,1.5605469,0.2158203,2.0722656,0.6474609c0.5126953,0.4311523,0.8203125,1.0517578,0.9238281,1.8608398h-1.3320312
			c-0.1503906-0.9418945-0.6962891-1.4125977-1.6376953-1.4125977c-0.6083984,0-1.0712891,0.2192383-1.3886719,0.6572266
			c-0.3164062,0.4384766-0.4804688,1.081543-0.4912109,1.9291992v0.6010742c0,0.8442383,0.1777344,1.5,0.5341797,1.9667969
			s0.8515625,0.7001953,1.4853516,0.7001953c0.6943359,0,1.1884766-0.1577148,1.4824219-0.4726562v-1.5307617h-1.6113281v-1.03125
			h2.9648438V115.9806137z"/>
	</g>
	<rect x="94.9491882" y="96.838829" class="st1" width="7.3175745" height="33.0053062"/>
</g>
<g>
	<path class="st2" d="M114.9384232,68.1270447h2.0410156v1.1923828h-2.0410156v2.3256836h-1.2675781v-2.3256836h-2.0517578
		v-1.1923828h2.0517578v-2.175293h1.2675781V68.1270447z"/>
	<path class="st2" d="M127.6752396,72.4292908h-1.3535156v-3.4697266h-3.4960938v3.4697266h-1.359375v-7.8203125h1.359375v3.2548828
		h3.4960938v-3.2548828h1.3535156V72.4292908z"/>
	<path class="st2" d="M135.7982941,68.7232361c0,0.7661133-0.1328125,1.4384766-0.3974609,2.0166016
		c-0.2646484,0.5786133-0.6435547,1.0224609-1.1357422,1.3320312c-0.4921875,0.3100586-1.0595703,0.4648438-1.7001953,0.4648438
		c-0.6337891,0-1.1982422-0.1547852-1.6943359-0.4648438c-0.4960938-0.3095703-0.8789062-0.7509766-1.1494141-1.3237305
		s-0.4072266-1.2333984-0.4111328-1.9819336v-0.4404297c0-0.7626953,0.1347656-1.4360352,0.4052734-2.0195312
		s0.6523438-1.0302734,1.1445312-1.3398438c0.4921875-0.3100586,1.0566406-0.4648438,1.6943359-0.4648438
		s1.2021484,0.1533203,1.6943359,0.4589844c0.4921875,0.3066406,0.8730469,0.7470703,1.1416016,1.3212891
		c0.2685547,0.5751953,0.4042969,1.2436523,0.4082031,2.0063477V68.7232361z M134.4398956,68.315033
		c0-0.8666992-0.1640625-1.5307617-0.4921875-1.9926758c-0.3271484-0.4619141-0.7919922-0.6928711-1.3935547-0.6928711
		c-0.5869141,0-1.046875,0.2299805-1.3779297,0.6904297c-0.3310547,0.4599609-0.5,1.1108398-0.5078125,1.9521484v0.4511719
		c0,0.859375,0.1679688,1.5234375,0.5029297,1.9926758s0.7988281,0.7036133,1.3935547,0.7036133
		c0.6015625,0,1.0644531-0.2290039,1.3886719-0.6875s0.4863281-1.1279297,0.4863281-2.0087891V68.315033z"/>
	<path class="st2" d="M140.2992706,69.4214783h-1.5136719v3.0078125h-1.359375v-7.8203125h2.75
		c0.9023438,0,1.5986328,0.2026367,2.0898438,0.6074219c0.4902344,0.4052734,0.7353516,0.9912109,0.7353516,1.7578125
		c0,0.5234375-0.1259766,0.9614258-0.3789062,1.3144531c-0.2519531,0.3530273-0.6044922,0.6245117-1.0556641,0.8144531
		l1.7568359,3.2563477v0.0698242H141.86763L140.2992706,69.4214783z M138.7855988,68.3257751h1.3964844
		c0.4580078,0,0.8164062-0.1152344,1.0742188-0.3466797c0.2578125-0.2304688,0.3867188-0.546875,0.3867188-0.9477539
		c0-0.4189453-0.1191406-0.7431641-0.3574219-0.972168s-0.59375-0.347168-1.0664062-0.3544922h-1.4335938V68.3257751z"/>
	<path class="st2" d="M145.9994659,72.4292908h-1.3535156v-7.8203125h1.3535156V72.4292908z"/>
	<path class="st2" d="M149.2240753,71.3443298h4.1787109v1.0849609h-5.8222656v-0.8808594l4.0449219-5.84375h-4.0175781v-1.0957031
		h5.6660156v0.859375L149.2240753,71.3443298z"/>
	<path class="st2" d="M160.9438019,68.7232361c0,0.7661133-0.1328125,1.4384766-0.3974609,2.0166016
		c-0.2646484,0.5786133-0.6435547,1.0224609-1.1357422,1.3320312c-0.4921875,0.3100586-1.0595703,0.4648438-1.7001953,0.4648438
		c-0.6337891,0-1.1982422-0.1547852-1.6943359-0.4648438c-0.4960938-0.3095703-0.8789062-0.7509766-1.1494141-1.3237305
		s-0.4072266-1.2333984-0.4111328-1.9819336v-0.4404297c0-0.7626953,0.1347656-1.4360352,0.4052734-2.0195312
		s0.6523438-1.0302734,1.1445312-1.3398438c0.4921875-0.3100586,1.0566406-0.4648438,1.6943359-0.4648438
		s1.2021484,0.1533203,1.6943359,0.4589844c0.4921875,0.3066406,0.8730469,0.7470703,1.1416016,1.3212891
		c0.2685547,0.5751953,0.4042969,1.2436523,0.4082031,2.0063477V68.7232361z M159.5854034,68.315033
		c0-0.8666992-0.1640625-1.5307617-0.4921875-1.9926758c-0.3271484-0.4619141-0.7919922-0.6928711-1.3935547-0.6928711
		c-0.5869141,0-1.046875,0.2299805-1.3779297,0.6904297c-0.3310547,0.4599609-0.5,1.1108398-0.5078125,1.9521484v0.4511719
		c0,0.859375,0.1679688,1.5234375,0.5029297,1.9926758s0.7988281,0.7036133,1.3935547,0.7036133
		c0.6015625,0,1.0644531-0.2290039,1.3886719-0.6875s0.4863281-1.1279297,0.4863281-2.0087891V68.315033z"/>
	<path class="st2" d="M168.7758331,72.4292908h-1.3583984l-3.4853516-5.5483398v5.5483398h-1.359375v-7.8203125h1.359375
		l3.4960938,5.5698242v-5.5698242h1.3476562V72.4292908z"/>
	<path class="st2" d="M176.1518097,65.7046814h-2.4384766v6.7246094h-1.3486328v-6.7246094h-2.4160156v-1.0957031h6.203125
		V65.7046814z"/>
	<path class="st2" d="M181.1850128,70.60849h-3.0292969l-0.6328125,1.8208008h-1.4130859l2.9541016-7.8203125h1.21875
		l2.9599609,7.8203125h-1.4179688L181.1850128,70.60849z M178.5375519,69.5127869h2.2666016l-1.1328125-3.2441406
		L178.5375519,69.5127869z"/>
	<path class="st2" d="M185.7631378,71.3443298h3.5498047v1.0849609h-4.9091797v-7.8203125h1.359375V71.3443298z"/>
	<path class="st2" d="M195.0023956,69.5289001v2.9003906h-1.359375v-7.8203125h2.9921875
		c0.8730469,0,1.5673828,0.2275391,2.0810547,0.6831055c0.5136719,0.4550781,0.7705078,1.0571289,0.7705078,1.8061523
		c0,0.7675781-0.2519531,1.3642578-0.7548828,1.7910156c-0.5029297,0.4262695-1.2070312,0.6396484-2.1132812,0.6396484H195.0023956z
		 M195.0023956,68.433197h1.6328125c0.4824219,0,0.8515625-0.1137695,1.1054688-0.3408203
		c0.2548828-0.2275391,0.3818359-0.5561523,0.3818359-0.9858398c0-0.4223633-0.1289062-0.7602539-0.3867188-1.012207
		c-0.2578125-0.2529297-0.6123047-0.3823242-1.0634766-0.3896484h-1.6699219V68.433197z"/>
	<path class="st2" d="M204.3686066,70.60849h-3.0292969l-0.6328125,1.8208008h-1.4130859l2.9541016-7.8203125h1.21875
		l2.9599609,7.8203125h-1.4179688L204.3686066,70.60849z M201.7211456,69.5127869h2.2666016l-1.1328125-3.2441406
		L201.7211456,69.5127869z"/>
	<path class="st2" d="M207.5873566,72.4292908v-7.8203125h2.3095703c0.6914062,0,1.3046875,0.1538086,1.8398438,0.4619141
		s0.9492188,0.7446289,1.2431641,1.3105469s0.4404297,1.2138672,0.4404297,1.9443359v0.3920898
		c0,0.7412109-0.1474609,1.3930664-0.4433594,1.9550781c-0.2949219,0.5620117-0.7158203,0.9956055-1.2617188,1.2998047
		s-1.171875,0.456543-1.8779297,0.456543H207.5873566z M208.9467316,65.7046814v5.6396484h0.8857422
		c0.7128906,0,1.2597656-0.2226562,1.640625-0.6689453c0.3818359-0.4453125,0.5761719-1.0854492,0.5830078-1.9199219v-0.4350586
		c0-0.8486328-0.1845703-1.496582-0.5527344-1.9443359c-0.3691406-0.4477539-0.9042969-0.6713867-1.6064453-0.6713867H208.9467316z"
		/>
	<path class="st2" d="M215.0502472,72.4292908v-7.8203125h2.3095703c0.6914062,0,1.3046875,0.1538086,1.8398438,0.4619141
		s0.9492188,0.7446289,1.2431641,1.3105469s0.4404297,1.2138672,0.4404297,1.9443359v0.3920898
		c0,0.7412109-0.1474609,1.3930664-0.4433594,1.9550781c-0.2949219,0.5620117-0.7158203,0.9956055-1.2617188,1.2998047
		s-1.171875,0.456543-1.8779297,0.456543H215.0502472z M216.4096222,65.7046814v5.6396484h0.8857422
		c0.7128906,0,1.2597656-0.2226562,1.640625-0.6689453c0.3818359-0.4453125,0.5761719-1.0854492,0.5830078-1.9199219v-0.4350586
		c0-0.8486328-0.1845703-1.496582-0.5527344-1.9443359c-0.3691406-0.4477539-0.9042969-0.6713867-1.6064453-0.6713867H216.4096222z"
		/>
	<path class="st2" d="M223.9438019,72.4292908h-1.3535156v-7.8203125h1.3535156V72.4292908z"/>
	<path class="st2" d="M232.0941925,72.4292908h-1.3583984l-3.4853516-5.5483398v5.5483398h-1.359375v-7.8203125h1.359375
		l3.4960938,5.5698242v-5.5698242h1.3476562V72.4292908z"/>
	<path class="st2" d="M239.9682159,71.4141541c-0.2832031,0.3686523-0.6748047,0.6479492-1.1757812,0.8378906
		c-0.5019531,0.1899414-1.0712891,0.284668-1.7089844,0.284668c-0.6542969,0-1.234375-0.1484375-1.7402344-0.4458008
		c-0.5039062-0.2973633-0.8935547-0.722168-1.1679688-1.2758789c-0.2734375-0.5527344-0.4160156-1.1982422-0.4267578-1.9360352
		v-0.6123047c0-1.1816406,0.2832031-2.1044922,0.8486328-2.769043c0.5654297-0.6640625,1.3554688-0.9960938,2.3691406-0.9960938
		c0.8691406,0,1.5605469,0.2158203,2.0722656,0.6474609c0.5126953,0.4311523,0.8203125,1.0517578,0.9238281,1.8608398h-1.3320312
		c-0.1503906-0.9418945-0.6962891-1.4125977-1.6376953-1.4125977c-0.6083984,0-1.0712891,0.2192383-1.3886719,0.6572266
		c-0.3164062,0.4384766-0.4804688,1.081543-0.4912109,1.9291992v0.6010742c0,0.8442383,0.1777344,1.5,0.5341797,1.9667969
		s0.8515625,0.7001953,1.4853516,0.7001953c0.6943359,0,1.1884766-0.1577148,1.4824219-0.4726562v-1.5307617h-1.6113281v-1.03125
		h2.9648438V71.4141541z"/>
</g>
<g>
	<rect x="8.9781723" y="52.8192482" class="st0" width="93.2885895" height="33.0053062"/>
	<rect x="8.9781723" y="52.8192482" class="st1" width="93.2885895" height="7.3175998"/>
	<rect x="8.9781723" y="78.5069504" class="st1" width="93.2885895" height="7.3175998"/>
</g>
<g>
	<path class="st2" d="M112.049263,30.3544922v-7.8203125h2.3095703c0.690918,0,1.3041992,0.1538086,1.8398438,0.4619141
		c0.5351562,0.3081055,0.949707,0.7446289,1.2431641,1.3105469s0.4404297,1.2138672,0.4404297,1.9443359v0.3920898
		c0,0.7412109-0.1474609,1.3930664-0.4433594,1.9550781c-0.2949219,0.5620117-0.7158203,0.9956055-1.2617188,1.2998047
		c-0.5463867,0.3041992-1.171875,0.456543-1.8774414,0.456543H112.049263z M113.4081497,23.6298828v5.6396484h0.8862305
		c0.7124023,0,1.2597656-0.2226562,1.640625-0.6689453c0.3818359-0.4453125,0.5756836-1.0854492,0.5830078-1.9199219v-0.4350586
		c0-0.8486328-0.1845703-1.496582-0.5532227-1.9443359s-0.9042969-0.6713867-1.605957-0.6713867H113.4081497z"/>
	<path class="st2" d="M124.0814896,26.8632812h-3.2109375v2.40625h3.7539062v1.0849609h-5.1132812v-7.8203125h5.0761719v1.0957031
		h-3.7167969v2.1591797h3.2109375V26.8632812z"/>
	<path class="st2" d="M130.5111847,27.0405273h-3.146492v3.3139648h-1.359375v-7.8203125h4.9687576v1.0957031h-3.6093826v2.3256836
		h3.146492V27.0405273z"/>
	<path class="st2" d="M135.6684113,28.5336914h-3.0292969l-0.6328125,1.8208008h-1.4130859l2.9541016-7.8203125h1.21875
		l2.9599609,7.8203125h-1.4179688L135.6684113,28.5336914z M133.0209503,27.4379883h2.2666016l-1.1328125-3.2441406
		L133.0209503,27.4379883z"/>
	<path class="st2" d="M144.5150909,22.5341797v5.2260742c0,0.8305664-0.2666016,1.4887695-0.7978516,1.9741211
		c-0.5322266,0.4848633-1.2402344,0.7275391-2.1240234,0.7275391c-0.8955078,0-1.6064453-0.2392578-2.1328125-0.7167969
		c-0.5263672-0.4785156-0.7890625-1.1416016-0.7890625-1.9902344v-5.2207031h1.3535156v5.2314453
		c0,0.5229492,0.1318359,0.921875,0.3964844,1.1977539c0.265625,0.2758789,0.65625,0.4135742,1.171875,0.4135742
		c1.0449219,0,1.5683594-0.5512695,1.5683594-1.6542969v-5.1884766H144.5150909z"/>
	<path class="st2" d="M147.5990753,29.2695312h3.5498047v1.0849609h-4.9091797v-7.8203125h1.359375V29.2695312z"/>
	<path class="st2" d="M157.0160675,23.6298828h-2.4384766v6.7246094h-1.3486328v-6.7246094h-2.4160156v-1.0957031h6.203125
		V23.6298828z"/>
	<path class="st2" d="M162.36763,27.4541016v2.9003906h-1.359375v-7.8203125h2.9921875
		c0.8730469,0,1.5673828,0.2275391,2.0810547,0.6831055c0.5136719,0.4550781,0.7705078,1.0571289,0.7705078,1.8061523
		c0,0.7675781-0.2519531,1.3642578-0.7548828,1.7910156c-0.5029297,0.4262695-1.2070312,0.6396484-2.1132812,0.6396484H162.36763z
		 M162.36763,26.3583984h1.6328125c0.4824219,0,0.8515625-0.1137695,1.1054688-0.3408203
		c0.2548828-0.2275391,0.3818359-0.5561523,0.3818359-0.9858398c0-0.4223633-0.1289062-0.7602539-0.3867188-1.012207
		c-0.2578125-0.2529297-0.6123047-0.3823242-1.0634766-0.3896484H162.36763V26.3583984z"/>
	<path class="st2" d="M171.7338409,28.5336914h-3.0292969l-0.6328125,1.8208008h-1.4130859l2.9541016-7.8203125h1.21875
		l2.9599609,7.8203125h-1.4179688L171.7338409,28.5336914z M169.08638,27.4379883h2.2666016l-1.1328125-3.2441406
		L169.08638,27.4379883z"/>
	<path class="st2" d="M174.9525909,30.3544922v-7.8203125h2.3095703c0.6914062,0,1.3046875,0.1538086,1.8398438,0.4619141
		s0.9492188,0.7446289,1.2431641,1.3105469s0.4404297,1.2138672,0.4404297,1.9443359v0.3920898
		c0,0.7412109-0.1474609,1.3930664-0.4433594,1.9550781c-0.2949219,0.5620117-0.7158203,0.9956055-1.2617188,1.2998047
		s-1.171875,0.456543-1.8779297,0.456543H174.9525909z M176.3119659,23.6298828v5.6396484h0.8857422
		c0.7128906,0,1.2597656-0.2226562,1.640625-0.6689453c0.3818359-0.4453125,0.5761719-1.0854492,0.5830078-1.9199219v-0.4350586
		c0-0.8486328-0.1845703-1.496582-0.5527344-1.9443359c-0.3691406-0.4477539-0.9042969-0.6713867-1.6064453-0.6713867H176.3119659z"
		/>
	<path class="st2" d="M182.414505,30.3544922v-7.8203125h2.3095703c0.6914062,0,1.3046875,0.1538086,1.8398438,0.4619141
		s0.9492188,0.7446289,1.2431641,1.3105469s0.4404297,1.2138672,0.4404297,1.9443359v0.3920898
		c0,0.7412109-0.1474609,1.3930664-0.4433594,1.9550781c-0.2949219,0.5620117-0.7158203,0.9956055-1.2617188,1.2998047
		s-1.171875,0.456543-1.8779297,0.456543H182.414505z M183.77388,23.6298828v5.6396484h0.8857422
		c0.7128906,0,1.2597656-0.2226562,1.640625-0.6689453c0.3818359-0.4453125,0.5761719-1.0854492,0.5830078-1.9199219v-0.4350586
		c0-0.8486328-0.1845703-1.496582-0.5527344-1.9443359c-0.3691406-0.4477539-0.9042969-0.6713867-1.6064453-0.6713867H183.77388z"/>
	<path class="st2" d="M191.3090363,30.3544922h-1.3535156v-7.8203125h1.3535156V30.3544922z"/>
	<path class="st2" d="M199.4584503,30.3544922h-1.3583984l-3.4853516-5.5483398v5.5483398h-1.359375v-7.8203125h1.359375
		l3.4960938,5.5698242v-5.5698242h1.3476562V30.3544922z"/>
	<path class="st2" d="M207.3334503,29.3393555c-0.2832031,0.3686523-0.6748047,0.6479492-1.1757812,0.8378906
		c-0.5019531,0.1899414-1.0712891,0.284668-1.7089844,0.284668c-0.6542969,0-1.234375-0.1484375-1.7402344-0.4458008
		c-0.5039062-0.2973633-0.8935547-0.722168-1.1679688-1.2758789c-0.2734375-0.5527344-0.4160156-1.1982422-0.4267578-1.9360352
		v-0.6123047c0-1.1816406,0.2832031-2.1044922,0.8486328-2.769043c0.5654297-0.6640625,1.3554688-0.9960938,2.3691406-0.9960938
		c0.8691406,0,1.5605469,0.2158203,2.0722656,0.6474609c0.5126953,0.4311523,0.8203125,1.0517578,0.9238281,1.8608398h-1.3320312
		c-0.1503906-0.9418945-0.6962891-1.4125977-1.6376953-1.4125977c-0.6083984,0-1.0712891,0.2192383-1.3886719,0.6572266
		c-0.3164062,0.4384766-0.4804688,1.081543-0.4912109,1.9291992v0.6010742c0,0.8442383,0.1777344,1.5,0.5341797,1.9667969
		s0.8515625,0.7001953,1.4853516,0.7001953c0.6943359,0,1.1884766-0.1577148,1.4824219-0.4726562v-1.5307617h-1.6113281v-1.03125
		h2.9648438V29.3393555z"/>
	<g>
		<rect x="8.9781723" y="8.1424656" class="st0" width="93.2885895" height="33.0053062"/>
		<rect x="8.9781723" y="8.1264753" class="st1" width="93.2885895" height="3.5"/>
		<rect x="8.9781723" y="37.6477699" class="st1" width="93.2885895" height="3.5"/>
	</g>
</g>
<g>
	<rect x="8.9781723" y="141.0358124" class="st0" width="93.2885895" height="33.0053062"/>
	<rect x="8.9781723" y="141.0358124" class="st1" width="7.3175745" height="33.0053062"/>
	<g>
		<path class="st2" d="M114.9384232,151.8507843h2.0410156v1.1923828h-2.0410156v2.3256836h-1.2675781v-2.3256836h-2.0517578
			v-1.1923828h2.0517578v-2.175293h1.2675781V151.8507843z"/>
		<path class="st2" d="M124.2221146,154.4503937l1.9863281-6.1176758h1.4941406l-2.8144531,7.8203125h-1.3164062
			l-2.8037109-7.8203125h1.4873047L124.2221146,154.4503937z"/>
		<path class="st2" d="M133.4281769,152.6618195h-3.2109375v2.40625h3.7539062v1.0849609h-5.1132812v-7.8203125h5.0761719v1.0957031
			h-3.7167969v2.1591797h3.2109375V152.6618195z"/>
		<path class="st2" d="M138.2250519,153.1452179H136.71138v3.0078125h-1.359375v-7.8203125h2.75
			c0.9023438,0,1.5986328,0.2026367,2.0898438,0.6074219c0.4902344,0.4052734,0.7353516,0.9912109,0.7353516,1.7578125
			c0,0.5234375-0.1259766,0.9614258-0.3789062,1.3144531c-0.2519531,0.3530273-0.6044922,0.6245117-1.0556641,0.8144531
			l1.7568359,3.2563477v0.0698242h-1.4560547L138.2250519,153.1452179z M136.71138,152.0495148h1.3964844
			c0.4580078,0,0.8164062-0.1152344,1.0742188-0.3466797c0.2578125-0.2304688,0.3867188-0.546875,0.3867188-0.9477539
			c0-0.4189453-0.1191406-0.7431641-0.3574219-0.972168s-0.59375-0.347168-1.0664062-0.3544922H136.71138V152.0495148z"/>
		<path class="st2" d="M147.8734894,149.428421h-2.4384766v6.7246094H144.08638v-6.7246094h-2.4160156v-1.0957031h6.203125
			V149.428421z"/>
		<path class="st2" d="M150.6078644,156.1530304h-1.3535156v-7.8203125h1.3535156V156.1530304z"/>
		<path class="st2" d="M158.5199738,153.607132c-0.078125,0.8344727-0.3867188,1.4853516-0.9238281,1.9521484
			c-0.5371094,0.4677734-1.2509766,0.7011719-2.1425781,0.7011719c-0.6230469,0-1.171875-0.1474609-1.6464844-0.4433594
			c-0.4746094-0.2949219-0.8398438-0.7148438-1.0976562-1.2592773s-0.3925781-1.1762695-0.4033203-1.8959961v-0.7304688
			c0-0.737793,0.1308594-1.3876953,0.3916016-1.949707c0.2617188-0.5620117,0.6367188-0.9956055,1.1259766-1.2998047
			c0.4882812-0.3041992,1.0537109-0.456543,1.6943359-0.456543c0.8632812,0,1.5576172,0.2333984,2.0839844,0.7011719
			c0.5263672,0.4667969,0.8320312,1.128418,0.9179688,1.984375h-1.3535156
			c-0.0644531-0.5620117-0.2275391-0.9677734-0.4912109-1.2167969c-0.2626953-0.2485352-0.6484375-0.3730469-1.1572266-0.3730469
			c-0.5908203,0-1.0449219,0.2158203-1.3613281,0.6479492c-0.3173828,0.4316406-0.4794922,1.0654297-0.4863281,1.9003906v0.6933594
			c0,0.8457031,0.1513672,1.4912109,0.4541016,1.9355469s0.7451172,0.6665039,1.3291016,0.6665039
			c0.5332031,0,0.9345703-0.1201172,1.203125-0.3598633s0.4384766-0.6391602,0.5097656-1.1977539H158.5199738z"/>
		<path class="st2" d="M164.3861847,154.3322296h-3.0292969l-0.6328125,1.8208008h-1.4130859l2.9541016-7.8203125h1.21875
			l2.9599609,7.8203125h-1.4179688L164.3861847,154.3322296z M161.7387238,153.2365265h2.2666016l-1.1328125-3.2441406
			L161.7387238,153.2365265z"/>
		<path class="st2" d="M168.9633331,155.0680695h3.5498047v1.0849609h-4.9091797v-7.8203125h1.359375V155.0680695z"/>
		<path class="st2" d="M181.2221222,154.3322296h-3.0292969l-0.6328125,1.8208008h-1.4130859l2.9541016-7.8203125h1.21875
			l2.9599609,7.8203125h-1.4179688L181.2221222,154.3322296z M178.5746613,153.2365265h2.2666016l-1.1328125-3.2441406
			L178.5746613,153.2365265z"/>
		<path class="st2" d="M190.6439972,156.1530304h-1.3583984l-3.4853516-5.5483398v5.5483398h-1.359375v-7.8203125h1.359375
			l3.4960938,5.5698242v-5.5698242h1.3476562V156.1530304z"/>
		<path class="st2" d="M192.5258331,156.1530304v-7.8203125h2.3095703c0.6914062,0,1.3046875,0.1538086,1.8398438,0.4619141
			s0.9492188,0.7446289,1.2431641,1.3105469s0.4404297,1.2138672,0.4404297,1.9443359v0.3920898
			c0,0.7412109-0.1474609,1.3930664-0.4433594,1.9550781c-0.2949219,0.5620117-0.7158203,0.9956055-1.2617188,1.2998047
			s-1.171875,0.456543-1.8779297,0.456543H192.5258331z M193.8852081,149.428421v5.6396484h0.8857422
			c0.7128906,0,1.2597656-0.2226562,1.640625-0.6689453c0.3818359-0.4453125,0.5761719-1.0854492,0.5830078-1.9199219v-0.4350586
			c0-0.8486328-0.1845703-1.496582-0.5527344-1.9443359c-0.3691406-0.4477539-0.9042969-0.6713867-1.6064453-0.6713867H193.8852081z
			"/>
		<path class="st2" d="M114.9384232,165.0509796h2.0410156v1.1923828h-2.0410156v2.3256836h-1.2675781v-2.3256836h-2.0517578
			v-1.1923828h2.0517578v-2.175293h1.2675781V165.0509796z"/>
		<path class="st2" d="M127.6752396,169.3532257h-1.3535156v-3.4697266h-3.4960938v3.4697266h-1.359375v-7.8203125h1.359375
			v3.2548828h3.4960938v-3.2548828h1.3535156V169.3532257z"/>
		<path class="st2" d="M135.7982941,165.647171c0,0.7661133-0.1328125,1.4384766-0.3974609,2.0166016
			c-0.2646484,0.5786133-0.6435547,1.0224609-1.1357422,1.3320312c-0.4921875,0.3100586-1.0595703,0.4648438-1.7001953,0.4648438
			c-0.6337891,0-1.1982422-0.1547852-1.6943359-0.4648438c-0.4960938-0.3095703-0.8789062-0.7509766-1.1494141-1.3237305
			s-0.4072266-1.2333984-0.4111328-1.9819336v-0.4404297c0-0.7626953,0.1347656-1.4360352,0.4052734-2.0195312
			s0.6523438-1.0302734,1.1445312-1.3398438c0.4921875-0.3100586,1.0566406-0.4648438,1.6943359-0.4648438
			s1.2021484,0.1533203,1.6943359,0.4589844c0.4921875,0.3066406,0.8730469,0.7470703,1.1416016,1.3212891
			c0.2685547,0.5751953,0.4042969,1.2436523,0.4082031,2.0063477V165.647171z M134.4398956,165.2389679
			c0-0.8666992-0.1640625-1.5307617-0.4921875-1.9926758c-0.3271484-0.4619141-0.7919922-0.6928711-1.3935547-0.6928711
			c-0.5869141,0-1.046875,0.2299805-1.3779297,0.6904297c-0.3310547,0.4599609-0.5,1.1108398-0.5078125,1.9521484v0.4511719
			c0,0.859375,0.1679688,1.5234375,0.5029297,1.9926758s0.7988281,0.7036133,1.3935547,0.7036133
			c0.6015625,0,1.0644531-0.2290039,1.3886719-0.6875s0.4863281-1.1279297,0.4863281-2.0087891V165.2389679z"/>
		<path class="st2" d="M140.2992706,166.3454132h-1.5136719v3.0078125h-1.359375v-7.8203125h2.75
			c0.9023438,0,1.5986328,0.2026367,2.0898438,0.6074219c0.4902344,0.4052734,0.7353516,0.9912109,0.7353516,1.7578125
			c0,0.5234375-0.1259766,0.9614258-0.3789062,1.3144531c-0.2519531,0.3530273-0.6044922,0.6245117-1.0556641,0.8144531
			l1.7568359,3.2563477v0.0698242H141.86763L140.2992706,166.3454132z M138.7855988,165.2497101h1.3964844
			c0.4580078,0,0.8164062-0.1152344,1.0742188-0.3466797c0.2578125-0.2304688,0.3867188-0.546875,0.3867188-0.9477539
			c0-0.4189453-0.1191406-0.7431641-0.3574219-0.972168s-0.59375-0.347168-1.0664062-0.3544922h-1.4335938V165.2497101z"/>
		<path class="st2" d="M145.9994659,169.3532257h-1.3535156v-7.8203125h1.3535156V169.3532257z"/>
		<path class="st2" d="M149.2240753,168.2682648h4.1787109v1.0849609h-5.8222656v-0.8808594l4.0449219-5.84375h-4.0175781
			v-1.0957031h5.6660156v0.859375L149.2240753,168.2682648z"/>
		<path class="st2" d="M160.9438019,165.647171c0,0.7661133-0.1328125,1.4384766-0.3974609,2.0166016
			c-0.2646484,0.5786133-0.6435547,1.0224609-1.1357422,1.3320312c-0.4921875,0.3100586-1.0595703,0.4648438-1.7001953,0.4648438
			c-0.6337891,0-1.1982422-0.1547852-1.6943359-0.4648438c-0.4960938-0.3095703-0.8789062-0.7509766-1.1494141-1.3237305
			s-0.4072266-1.2333984-0.4111328-1.9819336v-0.4404297c0-0.7626953,0.1347656-1.4360352,0.4052734-2.0195312
			s0.6523438-1.0302734,1.1445312-1.3398438c0.4921875-0.3100586,1.0566406-0.4648438,1.6943359-0.4648438
			s1.2021484,0.1533203,1.6943359,0.4589844c0.4921875,0.3066406,0.8730469,0.7470703,1.1416016,1.3212891
			c0.2685547,0.5751953,0.4042969,1.2436523,0.4082031,2.0063477V165.647171z M159.5854034,165.2389679
			c0-0.8666992-0.1640625-1.5307617-0.4921875-1.9926758c-0.3271484-0.4619141-0.7919922-0.6928711-1.3935547-0.6928711
			c-0.5869141,0-1.046875,0.2299805-1.3779297,0.6904297c-0.3310547,0.4599609-0.5,1.1108398-0.5078125,1.9521484v0.4511719
			c0,0.859375,0.1679688,1.5234375,0.5029297,1.9926758s0.7988281,0.7036133,1.3935547,0.7036133
			c0.6015625,0,1.0644531-0.2290039,1.3886719-0.6875s0.4863281-1.1279297,0.4863281-2.0087891V165.2389679z"/>
		<path class="st2" d="M168.7758331,169.3532257h-1.3583984l-3.4853516-5.5483398v5.5483398h-1.359375v-7.8203125h1.359375
			l3.4960938,5.5698242v-5.5698242h1.3476562V169.3532257z"/>
		<path class="st2" d="M176.1518097,162.6286163h-2.4384766v6.7246094h-1.3486328v-6.7246094h-2.4160156v-1.0957031h6.203125
			V162.6286163z"/>
		<path class="st2" d="M181.1850128,167.5324249h-3.0292969l-0.6328125,1.8208008h-1.4130859l2.9541016-7.8203125h1.21875
			l2.9599609,7.8203125h-1.4179688L181.1850128,167.5324249z M178.5375519,166.4367218h2.2666016l-1.1328125-3.2441406
			L178.5375519,166.4367218z"/>
		<path class="st2" d="M185.7631378,168.2682648h3.5498047v1.0849609h-4.9091797v-7.8203125h1.359375V168.2682648z"/>
		<path class="st2" d="M195.0023956,166.4528351v2.9003906h-1.359375v-7.8203125h2.9921875
			c0.8730469,0,1.5673828,0.2275391,2.0810547,0.6831055c0.5136719,0.4550781,0.7705078,1.0571289,0.7705078,1.8061523
			c0,0.7675781-0.2519531,1.3642578-0.7548828,1.7910156c-0.5029297,0.4262695-1.2070312,0.6396484-2.1132812,0.6396484H195.0023956
			z M195.0023956,165.357132h1.6328125c0.4824219,0,0.8515625-0.1137695,1.1054688-0.3408203
			c0.2548828-0.2275391,0.3818359-0.5561523,0.3818359-0.9858398c0-0.4223633-0.1289062-0.7602539-0.3867188-1.012207
			c-0.2578125-0.2529297-0.6123047-0.3823242-1.0634766-0.3896484h-1.6699219V165.357132z"/>
		<path class="st2" d="M204.3686066,167.5324249h-3.0292969l-0.6328125,1.8208008h-1.4130859l2.9541016-7.8203125h1.21875
			l2.9599609,7.8203125h-1.4179688L204.3686066,167.5324249z M201.7211456,166.4367218h2.2666016l-1.1328125-3.2441406
			L201.7211456,166.4367218z"/>
		<path class="st2" d="M207.5873566,169.3532257v-7.8203125h2.3095703c0.6914062,0,1.3046875,0.1538086,1.8398438,0.4619141
			s0.9492188,0.7446289,1.2431641,1.3105469s0.4404297,1.2138672,0.4404297,1.9443359v0.3920898
			c0,0.7412109-0.1474609,1.3930664-0.4433594,1.9550781c-0.2949219,0.5620117-0.7158203,0.9956055-1.2617188,1.2998047
			s-1.171875,0.456543-1.8779297,0.456543H207.5873566z M208.9467316,162.6286163v5.6396484h0.8857422
			c0.7128906,0,1.2597656-0.2226562,1.640625-0.6689453c0.3818359-0.4453125,0.5761719-1.0854492,0.5830078-1.9199219v-0.4350586
			c0-0.8486328-0.1845703-1.496582-0.5527344-1.9443359c-0.3691406-0.4477539-0.9042969-0.6713867-1.6064453-0.6713867H208.9467316z
			"/>
		<path class="st2" d="M215.0502472,169.3532257v-7.8203125h2.3095703c0.6914062,0,1.3046875,0.1538086,1.8398438,0.4619141
			s0.9492188,0.7446289,1.2431641,1.3105469s0.4404297,1.2138672,0.4404297,1.9443359v0.3920898
			c0,0.7412109-0.1474609,1.3930664-0.4433594,1.9550781c-0.2949219,0.5620117-0.7158203,0.9956055-1.2617188,1.2998047
			s-1.171875,0.456543-1.8779297,0.456543H215.0502472z M216.4096222,162.6286163v5.6396484h0.8857422
			c0.7128906,0,1.2597656-0.2226562,1.640625-0.6689453c0.3818359-0.4453125,0.5761719-1.0854492,0.5830078-1.9199219v-0.4350586
			c0-0.8486328-0.1845703-1.496582-0.5527344-1.9443359c-0.3691406-0.4477539-0.9042969-0.6713867-1.6064453-0.6713867H216.4096222z
			"/>
		<path class="st2" d="M223.9438019,169.3532257h-1.3535156v-7.8203125h1.3535156V169.3532257z"/>
		<path class="st2" d="M232.0941925,169.3532257h-1.3583984l-3.4853516-5.5483398v5.5483398h-1.359375v-7.8203125h1.359375
			l3.4960938,5.5698242v-5.5698242h1.3476562V169.3532257z"/>
		<path class="st2" d="M239.9682159,168.338089c-0.2832031,0.3686523-0.6748047,0.6479492-1.1757812,0.8378906
			c-0.5019531,0.1899414-1.0712891,0.284668-1.7089844,0.284668c-0.6542969,0-1.234375-0.1484375-1.7402344-0.4458008
			c-0.5039062-0.2973633-0.8935547-0.722168-1.1679688-1.2758789c-0.2734375-0.5527344-0.4160156-1.1982422-0.4267578-1.9360352
			v-0.6123047c0-1.1816406,0.2832031-2.1044922,0.8486328-2.769043c0.5654297-0.6640625,1.3554688-0.9960938,2.3691406-0.9960938
			c0.8691406,0,1.5605469,0.2158203,2.0722656,0.6474609c0.5126953,0.4311523,0.8203125,1.0517578,0.9238281,1.8608398h-1.3320312
			c-0.1503906-0.9418945-0.6962891-1.4125977-1.6376953-1.4125977c-0.6083984,0-1.0712891,0.2192383-1.3886719,0.6572266
			c-0.3164062,0.4384766-0.4804688,1.081543-0.4912109,1.9291992v0.6010742c0,0.8442383,0.1777344,1.5,0.5341797,1.9667969
			s0.8515625,0.7001953,1.4853516,0.7001953c0.6943359,0,1.1884766-0.1577148,1.4824219-0.4726562v-1.5307617h-1.6113281v-1.03125
			h2.9648438V168.338089z"/>
	</g>
	<rect x="94.9491882" y="141.0358124" class="st1" width="7.3175745" height="33.0053062"/>
	<rect x="8.9781723" y="140.8584137" class="st1" width="93.2885895" height="7.3175998"/>
	<rect x="8.9781723" y="166.9009247" class="st1" width="93.2885895" height="7.3175998"/>
</g>
</svg>
