<svg id="Layer_1" data-name="Layer 1" xmlns="http://www.w3.org/2000/svg" viewBox="0 0 142.44 142.44003"><defs><style>.cls-1{fill:#d5dde4;}</style></defs><path class="cls-1" d="M34.97891,5.88726a1.25217,1.25217,0,1,0,1.77084,0h0a1.24975,1.24975,0,0,0-1.76741-.00339h0Z" transform="translate(-0.00003 0)"/><path class="cls-1" d="M56.21841,27.12688a1.25215,1.25215,0,1,0,1.77081-.00012l-.00244-.00243a1.249,1.249,0,0,0-1.76634.0005Z" transform="translate(-0.00003 0)"/><path class="cls-1" d="M43.83043,12.96811a1.25215,1.25215,0,1,0-.005,1.77081l.0025-.0025A1.25515,1.25515,0,0,0,43.83043,12.96811Z" transform="translate(-0.00003 0)"/><path class="cls-1" d="M79.22627,50.13475a1.25219,1.25219,0,1,0-1.77088-.00019l.00007.00007A1.25424,1.25424,0,0,0,79.22627,50.13475Z" transform="translate(-0.00003 0)"/><path class="cls-1" d="M72.14823,41.2859a1.25215,1.25215,0,1,0-.00488,1.77081l.00244-.00244A1.25516,1.25516,0,0,0,72.14823,41.2859Z" transform="translate(-0.00003 0)"/><path class="cls-1" d="M63.2967,34.20517a1.25215,1.25215,0,1,0,1.77081-.00011h0a1.24959,1.24959,0,0,0-1.76719-.00348h0Z" transform="translate(-0.00003 0)"/><path class="cls-1" d="M86.307,57.21547a1.25287,1.25287,0,1,0-.00247.00246Z" transform="translate(-0.00003 0)"/><path class="cls-1" d="M100.46358,71.37205a1.25219,1.25219,0,1,0-1.77087-.00006l.00231.0023A1.25159,1.25159,0,0,0,100.46358,71.37205Z" transform="translate(-0.00003 0)"/><path class="cls-1" d="M93.38529,62.52284a1.25207,1.25207,0,1,0,.00023.00023Z" transform="translate(-0.00003 0)"/><path class="cls-1" d="M107.54415,78.45254a1.25217,1.25217,0,1,0-1.77084-.00016h0A1.25454,1.25454,0,0,0,107.54415,78.45254Z" transform="translate(-0.00003 0)"/><path class="cls-1" d="M114.62485,85.53332a1.25277,1.25277,0,1,0-.00253.00252Z" transform="translate(-0.00003 0)"/><path class="cls-1" d="M121.70308,90.84069a1.20734,1.20734,0,1,0,.00017.00016Z" transform="translate(-0.00003 0)"/><path class="cls-1" d="M50.90849,21.817a1.252,1.252,0,1,0-1.7706.00016l0,0A1.252,1.252,0,0,0,50.90849,21.817Z" transform="translate(-0.00003 0)"/><path class="cls-1" d="M63.2967,20.04858a1.25214,1.25214,0,1,0,1.77079-.00012h0l-.00242-.00242A1.25124,1.25124,0,0,0,63.2967,20.04858Z" transform="translate(-0.00003 0)"/><path class="cls-1" d="M72.14579,28.89769a1.25219,1.25219,0,1,0-1.77087-.00007l.00007.00007A1.25233,1.25233,0,0,0,72.14579,28.89769Z" transform="translate(-0.00003 0)"/><path class="cls-1" d="M107.54187,64.29376a1.25219,1.25219,0,1,0-1.77087,0l.00231.0023a1.24925,1.24925,0,0,0,1.7667-.00038h0Z" transform="translate(-0.00003 0)"/><path class="cls-1" d="M76.58255,33.3244a2.50254,2.50254,0,1,0,3.53912.00255h0l-.00255-.00255A2.50116,2.50116,0,0,0,76.58255,33.3244Z" transform="translate(-0.00003 0)"/><path class="cls-1" d="M50.9061,7.65813A1.25217,1.25217,0,1,0,49.13526,7.658l.00266.00265A1.249,1.249,0,0,0,50.90427,7.66Z" transform="translate(-0.00003 0)"/><path class="cls-1" d="M56.21622,12.96811a1.29748,1.29748,0,1,0,.00015-.00014Z" transform="translate(-0.00003 0)"/><path class="cls-1" d="M115.52243,72.2644a2.50416,2.50416,0,1,0-.00019.00019Z" transform="translate(-0.00003 0)"/><path class="cls-1" d="M93.38529,50.13718a1.25034,1.25034,0,1,0-.00258.00258Z" transform="translate(-0.00003 0)"/><path class="cls-1" d="M86.30456,43.05645a1.25219,1.25219,0,1,0-1.77087-.00006l.00007.00006a1.25206,1.25206,0,0,0,1.77068.00012l0,0Z" transform="translate(-0.00003 0)"/><path class="cls-1" d="M100.46358,57.21547a1.25214,1.25214,0,1,0-1.7708,0A1.25213,1.25213,0,0,0,100.46358,57.21547Z" transform="translate(-0.00003 0)"/><path class="cls-1" d="M121.70308,78.455a1.25271,1.25271,0,1,0-.00259.00258Z" transform="translate(-0.00003 0)"/><path class="cls-1" d="M79.22627,7.66062a1.25024,1.25024,0,1,0-.00211.00211Z" transform="translate(-0.00003 0)"/><path class="cls-1" d="M100.46321,28.89769a1.25213,1.25213,0,1,0-1.77078-.00072l.00035.00035a1.2518,1.2518,0,0,0,1.7703.0005v0Z" transform="translate(-0.00003 0)"/><path class="cls-1" d="M84.534,14.73855a1.25193,1.25193,0,1,0-.00032-1.7705v0h-.00006A1.25408,1.25408,0,0,0,84.534,14.73855Z" transform="translate(-0.00003 0)"/><path class="cls-1" d="M91.61472,21.8194a1.25127,1.25127,0,1,0-.00386-.00385Z" transform="translate(-0.00003 0)"/><path class="cls-1" d="M105.77112,35.97561a1.25189,1.25189,0,1,0,.00464-1.77044l-.0024.0024A1.257,1.257,0,0,0,105.77112,35.97561Z" transform="translate(-0.00003 0)"/><path class="cls-1" d="M112.85179,43.05645a1.252,1.252,0,1,0-.00027-1.77059l0,0h0A1.25415,1.25415,0,0,0,112.85179,43.05645Z" transform="translate(-0.00003 0)"/><path class="cls-1" d="M119.93234,50.137a1.25141,1.25141,0,1,0-.00353-.00352Z" transform="translate(-0.00003 0)"/><path class="cls-1" d="M72.14823,14.73867a1.25292,1.25292,0,1,0-.00244.00243Z" transform="translate(-0.00003 0)"/><path class="cls-1" d="M65.06774,5.88726a1.25214,1.25214,0,1,0-.00047,1.7708l.00023-.00024A1.25421,1.25421,0,0,0,65.06774,5.88726Z" transform="translate(-0.00003 0)"/><path class="cls-1" d="M77.45571,21.81684a1.25207,1.25207,0,1,0-.0001-.0001Z" transform="translate(-0.00003 0)"/><path class="cls-1" d="M93.38529,34.20481a1.25214,1.25214,0,1,0,0,1.7708A1.25213,1.25213,0,0,0,93.38529,34.20481Z" transform="translate(-0.00003 0)"/><path class="cls-1" d="M100.466,43.05645a1.25294,1.25294,0,1,0-.00243.00242Z" transform="translate(-0.00003 0)"/><path class="cls-1" d="M86.30723,27.12676a1.25219,1.25219,0,1,0-.00493,1.77086l.0025-.00249A1.25511,1.25511,0,0,0,86.30723,27.12676Z" transform="translate(-0.00003 0)"/><path class="cls-1" d="M105.7735,50.13467a1.30717,1.30717,0,1,0-.0001-.00011Z" transform="translate(-0.00003 0)"/><path class="cls-1" d="M114.6226,57.21292a1.25214,1.25214,0,1,0-1.7708,0l.00224.00224A1.25144,1.25144,0,0,0,114.6226,57.21292Z" transform="translate(-0.00003 0)"/><path class="cls-1" d="M121.70308,62.52266a1.25213,1.25213,0,1,0,0,1.77081,1.25213,1.25213,0,0,0,0-1.77081Z" transform="translate(-0.00003 0)"/><circle class="cls-1" cx="14.62466" cy="28.01227" r="1.25219"/><path class="cls-1" d="M27.89836,41.2859a1.252,1.252,0,1,0,.00021-.00021Z" transform="translate(-0.00003 0)"/><path class="cls-1" d="M63.2967,76.68422a1.25214,1.25214,0,1,0,1.77079,0h0l-.00255-.00255A1.25132,1.25132,0,0,0,63.2967,76.68422Z" transform="translate(-0.00003 0)"/><path class="cls-1" d="M36.74967,50.13718a1.25279,1.25279,0,1,0-.00262.00261Z" transform="translate(-0.00003 0)"/><path class="cls-1" d="M56.21584,69.6035a1.2522,1.2522,0,1,0,.00006-.00006Z" transform="translate(-0.00003 0)"/><path class="cls-1" d="M42.057,57.21547a1.25217,1.25217,0,1,0,0-1.77084h0A1.25443,1.25443,0,0,0,42.057,57.21547Z" transform="translate(-0.00003 0)"/><path class="cls-1" d="M22.58833,35.976a1.25216,1.25216,0,1,0-1.77082-.00012h0l.00252.00254a1.24915,1.24915,0,0,0,1.76656-.00073Z" transform="translate(-0.00003 0)"/><path class="cls-1" d="M6.661,20.04858a1.25214,1.25214,0,1,0,1.7708,0L8.42927,20.046A1.25144,1.25144,0,0,0,6.661,20.04858Z" transform="translate(-0.00003 0)"/><path class="cls-1" d="M119.92972,135.08818a1.25215,1.25215,0,1,0,.00506-1.7708h0l-.00245.00243A1.25747,1.25747,0,0,0,119.92972,135.08818Z" transform="translate(-0.00003 0)"/><path class="cls-1" d="M112.85148,126.23909a1.17648,1.17648,0,1,0,.00007-.00008Z" transform="translate(-0.00003 0)"/><path class="cls-1" d="M72.14579,85.53332a1.25217,1.25217,0,1,0-.00009.00009Z" transform="translate(-0.00003 0)"/><path class="cls-1" d="M77.45546,92.6138a1.25309,1.25309,0,1,0-.0032-.0032Z" transform="translate(-0.00003 0)"/><path class="cls-1" d="M93.38529,106.77284a1.25044,1.25044,0,1,0-.00256.00256Z" transform="translate(-0.00003 0)"/><circle class="cls-1" cx="85.41907" cy="98.80669" r="1.25219"/><path class="cls-1" d="M100.46358,113.85111a1.18407,1.18407,0,1,0-.0001.00011Z" transform="translate(-0.00003 0)"/><path class="cls-1" d="M107.54187,120.9294a1.25219,1.25219,0,1,0-1.77087-.00011l.00231.0023a1.24937,1.24937,0,0,0,1.76687-.00049Z" transform="translate(-0.00003 0)"/><path class="cls-1" d="M50.9061,64.29376a1.25214,1.25214,0,1,0-1.7708-.00016l.00262.0026a1.24907,1.24907,0,0,0,1.76646-.00073h0Z" transform="translate(-0.00003 0)"/><path class="cls-1" d="M49.1353,92.61126a1.2522,1.2522,0,1,0,.00525-1.77087l0,0-.00262.0026A1.25757,1.25757,0,0,0,49.1353,92.61126Z" transform="translate(-0.00003 0)"/><path class="cls-1" d="M6.65875,48.36382a1.25295,1.25295,0,1,0,.00244-.00243Z" transform="translate(-0.00003 0)"/><path class="cls-1" d="M20.81751,64.29346a1.25215,1.25215,0,1,0,.00512-1.77081l-.00256.00256A1.25747,1.25747,0,0,0,20.81751,64.29346Z" transform="translate(-0.00003 0)"/><path class="cls-1" d="M34.97909,78.455a1.25171,1.25171,0,1,0-.00365-.00364Z" transform="translate(-0.00003 0)"/><path class="cls-1" d="M42.057,83.76216a1.25221,1.25221,0,1,0,1.7709,0h0A1.25452,1.25452,0,0,0,42.057,83.76216Z" transform="translate(-0.00003 0)"/><path class="cls-1" d="M27.89836,71.3743a1.25214,1.25214,0,1,0,0-1.7708A1.25213,1.25213,0,0,0,27.89836,71.3743Z" transform="translate(-0.00003 0)"/><path class="cls-1" d="M15.51015,57.21529a1.252,1.252,0,1,0-1.7706.00013l0,0h0a1.25188,1.25188,0,0,0,1.77043,0h0Z" transform="translate(-0.00003 0)"/><path class="cls-1" d="M56.21622,99.69209a1.25212,1.25212,0,1,0,0-1.77079,1.25211,1.25211,0,0,0,0,1.77079Z" transform="translate(-0.00003 0)"/><path class="cls-1" d="M72.14579,113.85087a1.25223,1.25223,0,1,0-1.77093,0A1.25223,1.25223,0,0,0,72.14579,113.85087Z" transform="translate(-0.00003 0)"/><path class="cls-1" d="M65.06527,106.7704a1.25224,1.25224,0,1,0-1.77094-.00018h0l.00237.00236a1.24913,1.24913,0,0,0,1.76653-.00016l0,0Z" transform="translate(-0.00003 0)"/><path class="cls-1" d="M79.22656,120.93159a1.25042,1.25042,0,1,0-.00258.00258Z" transform="translate(-0.00003 0)"/><path class="cls-1" d="M84.534,128.00989a1.25214,1.25214,0,1,0,0-1.7708,1.25216,1.25216,0,0,0,0,1.7708Z" transform="translate(-0.00003 0)"/><path class="cls-1" d="M91.6123,133.3174a1.25054,1.25054,0,1,0,.00224-.00224Z" transform="translate(-0.00003 0)"/><path class="cls-1" d="M43.82794,28.8974a1.23537,1.23537,0,1,0-.00031.00032Z" transform="translate(-0.00003 0)"/><path class="cls-1" d="M34.97909,21.8194a1.25165,1.25165,0,1,0-.00381-.0038Z" transform="translate(-0.00003 0)"/><path class="cls-1" d="M49.1353,35.97561a1.252,1.252,0,1,0,.005-1.77059l-.00241.0024A1.25719,1.25719,0,0,0,49.1353,35.97561Z" transform="translate(-0.00003 0)"/><path class="cls-1" d="M27.89836,14.73867a1.23373,1.23373,0,1,0-.00034-.00033Z" transform="translate(-0.00003 0)"/><path class="cls-1" d="M72.14579,57.21529a1.23274,1.23274,0,1,0-.00012.00012Z" transform="translate(-0.00003 0)"/><path class="cls-1" d="M63.29693,50.13718a1.253,1.253,0,1,0-.0039-.0039Z" transform="translate(-0.00003 0)"/><path class="cls-1" d="M56.21622,43.05645a1.252,1.252,0,1,0-.00021-.00021Z" transform="translate(-0.00003 0)"/><path class="cls-1" d="M22.59088,7.6604a1.25035,1.25035,0,1,0-.00258.00258Z" transform="translate(-0.00003 0)"/><path class="cls-1" d="M77.45315,64.29346a1.252,1.252,0,1,0,.00491-1.77059l-.00235.00233A1.25716,1.25716,0,0,0,77.45315,64.29346Z" transform="translate(-0.00003 0)"/><path class="cls-1" d="M86.30481,71.3743a1.25214,1.25214,0,1,0-1.7708,0,1.25213,1.25213,0,0,0,1.7708,0Z" transform="translate(-0.00003 0)"/><path class="cls-1" d="M100.46358,85.53308a1.25219,1.25219,0,1,0-1.77087-.00007l.00007.00007a1.25207,1.25207,0,0,0,1.77069.00011l0,0Z" transform="translate(-0.00003 0)"/><path class="cls-1" d="M91.6123,76.68167a1.24725,1.24725,0,1,0,.002-.002Z" transform="translate(-0.00003 0)"/><path class="cls-1" d="M105.77094,92.61126a1.252,1.252,0,1,0,.00492-1.77059l0,0-.00232.00231A1.25717,1.25717,0,0,0,105.77094,92.61126Z" transform="translate(-0.00003 0)"/><path class="cls-1" d="M112.85179,99.69209a1.22255,1.22255,0,1,0-.00021-.0002Z" transform="translate(-0.00003 0)"/><path class="cls-1" d="M119.93234,106.77257a1.24986,1.24986,0,1,0-.00364-.00362Z" transform="translate(-0.00003 0)"/><path class="cls-1" d="M43.83043,43.05645a1.25277,1.25277,0,1,0-.00258.00257Z" transform="translate(-0.00003 0)"/><path class="cls-1" d="M72.14823,71.3743a1.25272,1.25272,0,1,0-.00259.00258Z" transform="translate(-0.00003 0)"/><path class="cls-1" d="M20.82,21.817A1.25219,1.25219,0,1,0,20.82,21.8169Z" transform="translate(-0.00003 0)"/><path class="cls-1" d="M29.67166,27.12688a1.25215,1.25215,0,1,0-.00505,1.7708h0l.00256-.00255A1.25506,1.25506,0,0,0,29.67166,27.12688Z" transform="translate(-0.00003 0)"/><path class="cls-1" d="M65.0675,62.52266a1.25214,1.25214,0,1,0,0,1.77081,1.25214,1.25214,0,0,0,0-1.77081Z" transform="translate(-0.00003 0)"/><path class="cls-1" d="M57.98945,55.44467a1.25215,1.25215,0,1,0-.00506,1.7708l.00256-.00255A1.25511,1.25511,0,0,0,57.98945,55.44467Z" transform="translate(-0.00003 0)"/><path class="cls-1" d="M49.13793,50.13475a1.2522,1.2522,0,1,0,0-1.77093,1.2522,1.2522,0,0,0,0,1.77093Z" transform="translate(-0.00003 0)"/><path class="cls-1" d="M36.74989,34.20517a1.25216,1.25216,0,1,0-.00056,1.77082h0l.00038-.00038A1.254,1.254,0,0,0,36.74989,34.20517Z" transform="translate(-0.00003 0)"/><path class="cls-1" d="M15.51264,14.73867a1.2504,1.2504,0,1,0-.00256.00256Z" transform="translate(-0.00003 0)"/><path class="cls-1" d="M8.43208,5.88726a1.25217,1.25217,0,1,0,0,1.77087,1.25218,1.25218,0,0,0,0-1.77087Z" transform="translate(-0.00003 0)"/><path class="cls-1" d="M77.45571,78.45254a1.301,1.301,0,1,0-.00016-.00017Z" transform="translate(-0.00003 0)"/><path class="cls-1" d="M93.38529,90.84045a1.25215,1.25215,0,1,0,0,1.77081,1.25215,1.25215,0,0,0,0-1.77081Z" transform="translate(-0.00003 0)"/><path class="cls-1" d="M100.466,99.69209a1.25034,1.25034,0,1,0-.00245.00245Z" transform="translate(-0.00003 0)"/><path class="cls-1" d="M86.307,83.76216a1.25217,1.25217,0,1,0-.00448,1.77083h0l.00229-.00228A1.25508,1.25508,0,0,0,86.307,83.76216Z" transform="translate(-0.00003 0)"/><path class="cls-1" d="M114.62485,112.08a1.25219,1.25219,0,1,0-.00447,1.77086l.00222-.00219A1.255,1.255,0,0,0,114.62485,112.08Z" transform="translate(-0.00003 0)"/><path class="cls-1" d="M121.70308,120.92914a1.25216,1.25216,0,1,0-1.77082-.00008h0l.00007.00008A1.25454,1.25454,0,0,0,121.70308,120.92914Z" transform="translate(-0.00003 0)"/><path class="cls-1" d="M105.7735,106.7704a1.25217,1.25217,0,1,0-.0001-.0001Z" transform="translate(-0.00003 0)"/><path class="cls-1" d="M121.70308,7.65778a1.25212,1.25212,0,1,0-1.77077,0h0A1.25391,1.25391,0,0,0,121.70308,7.65778Z" transform="translate(-0.00003 0)"/><path class="cls-1" d="M112.854,27.12688a1.25214,1.25214,0,1,0,1.77082,0l-.00251-.0025a1.249,1.249,0,0,0-1.76635.00057Z" transform="translate(-0.00003 0)"/><path class="cls-1" d="M107.54415,21.817a1.2522,1.2522,0,1,0-1.77088-.00007l.00007.00007A1.25441,1.25441,0,0,0,107.54415,21.817Z" transform="translate(-0.00003 0)"/><path class="cls-1" d="M91.61449,7.65813a1.22748,1.22748,0,1,0-.00018-.00017Z" transform="translate(-0.00003 0)"/><path class="cls-1" d="M98.69278,12.96555a1.25252,1.25252,0,1,0,.0013-.0013Z" transform="translate(-0.00003 0)"/><path class="cls-1" d="M119.93234,35.976a1.29145,1.29145,0,1,0-.0001-.00011Z" transform="translate(-0.00003 0)"/><path class="cls-1" d="M107.54187,7.65813a1.25221,1.25221,0,1,0-1.77089,0h0l.00252.00252a1.24917,1.24917,0,0,0,1.76659-.0007l0,0Z" transform="translate(-0.00003 0)"/><circle class="cls-1" cx="113.73689" cy="13.85326" r="1.25217"/><path class="cls-1" d="M119.92972,21.817a1.25219,1.25219,0,1,0,.00511-1.77086l-.00249.00249A1.25752,1.25752,0,0,0,119.92972,21.817Z" transform="translate(-0.00003 0)"/><path class="cls-1" d="M8.43186,78.455a1.2504,1.2504,0,1,0-.00257.00257Z" transform="translate(-0.00003 0)"/><path class="cls-1" d="M15.51015,85.53332a1.24421,1.24421,0,1,0-.00023.00023Z" transform="translate(-0.00003 0)"/><path class="cls-1" d="M42.057,113.85111a1.25217,1.25217,0,1,0,0-1.77084h0A1.25454,1.25454,0,0,0,42.057,113.85111Z" transform="translate(-0.00003 0)"/><path class="cls-1" d="M34.97891,105.002a1.25214,1.25214,0,1,0,1.7708.00006l-.00262-.00261A1.25138,1.25138,0,0,0,34.97891,105.002Z" transform="translate(-0.00003 0)"/><path class="cls-1" d="M27.898,97.92129a1.25214,1.25214,0,1,0,1.7708,0A1.25213,1.25213,0,0,0,27.898,97.92129Z" transform="translate(-0.00003 0)"/><path class="cls-1" d="M22.58833,92.61155a1.25215,1.25215,0,1,0-1.77082,0l.00256.00254a1.249,1.249,0,0,0,1.76628-.00051Z" transform="translate(-0.00003 0)"/><path class="cls-1" d="M50.90624,120.9294a1.25219,1.25219,0,1,0-1.77087,0l.00219.00218a1.24926,1.24926,0,0,0,1.76671-.00022h0Z" transform="translate(-0.00003 0)"/><path class="cls-1" d="M65.0675,135.09061a1.25782,1.25782,0,1,0-.00257.00254Z" transform="translate(-0.00003 0)"/><path class="cls-1" d="M56.21584,126.23909a1.25219,1.25219,0,1,0,.00008-.00008Z" transform="translate(-0.00003 0)"/><path class="cls-1" d="M6.661,92.61155a1.20226,1.20226,0,1,0-.00011-.0001Z" transform="translate(-0.00003 0)"/><path class="cls-1" d="M27.90062,112.08031a1.25214,1.25214,0,1,0,1.7708,0l-.00256-.00255a1.24909,1.24909,0,0,0-1.76647.00078Z" transform="translate(-0.00003 0)"/><path class="cls-1" d="M15.51015,99.68984a1.25223,1.25223,0,1,0-1.77092-.00016h0l.00261.0026A1.2514,1.2514,0,0,0,15.51015,99.68984Z" transform="translate(-0.00003 0)"/><path class="cls-1" d="M22.5907,106.7704a1.25224,1.25224,0,1,0-1.77094,0,1.25223,1.25223,0,0,0,1.77094,0Z" transform="translate(-0.00003 0)"/><path class="cls-1" d="M34.97891,119.1586a1.249,1.249,0,1,0,.00339-.00339Z" transform="translate(-0.00003 0)"/><path class="cls-1" d="M42.057,126.23678a1.24532,1.24532,0,1,0,.00129-.0013Z" transform="translate(-0.00003 0)"/><path class="cls-1" d="M50.90849,135.08818a1.25219,1.25219,0,1,0-.00008.00008Z" transform="translate(-0.00003 0)"/><path class="cls-1" d="M5.78559,33.32472a2.50385,2.50385,0,1,0,.00249-.00248Z" transform="translate(-0.00003 0)"/><path class="cls-1" d="M27.90062,55.44467a1.25214,1.25214,0,1,0,1.7708,0l-.00256-.00255a1.249,1.249,0,0,0-1.76633.00063Z" transform="translate(-0.00003 0)"/><path class="cls-1" d="M65.0675,90.84075a1.24339,1.24339,0,1,0,.0001.0001Z" transform="translate(-0.00003 0)"/><path class="cls-1" d="M72.148,97.92129a1.25213,1.25213,0,1,0-.00441,1.77078l.00222-.00223A1.25511,1.25511,0,0,0,72.148,97.92129Z" transform="translate(-0.00003 0)"/><path class="cls-1" d="M41.18387,68.72305a2.50255,2.50255,0,1,0,3.53914.00247h0l-.00246-.00247A2.50122,2.50122,0,0,0,41.18387,68.72305Z" transform="translate(-0.00003 0)"/><path class="cls-1" d="M22.5907,50.13475a1.1765,1.1765,0,1,0-.00007.00008Z" transform="translate(-0.00003 0)"/><path class="cls-1" d="M34.97891,64.29376a1.25207,1.25207,0,1,0-.0001-.0001Z" transform="translate(-0.00003 0)"/><path class="cls-1" d="M107.54415,135.08818a1.25214,1.25214,0,1,0-1.77081,0,1.25215,1.25215,0,0,0,1.77081,0Z" transform="translate(-0.00003 0)"/><path class="cls-1" d="M50.90849,78.45254a1.25222,1.25222,0,1,0-1.77094,0,1.25223,1.25223,0,0,0,1.77094,0Z" transform="translate(-0.00003 0)"/><path class="cls-1" d="M76.58255,104.12157a2.50415,2.50415,0,1,0,3.5414.00483h0l-.00258-.00258a2.50149,2.50149,0,0,0-3.53764-.00343l0,0Z" transform="translate(-0.00003 0)"/><path class="cls-1" d="M84.53626,112.08031a1.25212,1.25212,0,1,0,1.77077-.0001l-.00247-.00246a1.24909,1.24909,0,0,0-1.76647.00071v0Z" transform="translate(-0.00003 0)"/><path class="cls-1" d="M56.21841,83.76252a1.25214,1.25214,0,1,0,1.77079-.00019h0l-.00242-.00242a1.249,1.249,0,0,0-1.76635.00058l0,0Z" transform="translate(-0.00003 0)"/><path class="cls-1" d="M93.38529,119.1586a1.252,1.252,0,1,0,.00027.00027Z" transform="translate(-0.00003 0)"/><path class="cls-1" d="M100.46358,128.00763a1.25217,1.25217,0,1,0-1.77084,0l0,0,.00225.00226A1.25145,1.25145,0,0,0,100.46358,128.00763Z" transform="translate(-0.00003 0)"/><path class="cls-1" d="M15.51015,43.05427a1.25224,1.25224,0,1,0-1.77094-.00018l.00263.00262A1.25149,1.25149,0,0,0,15.51015,43.05427Z" transform="translate(-0.00003 0)"/><path class="cls-1" d="M22.59088,76.68167a1.25217,1.25217,0,1,0,0,1.77087,1.25218,1.25218,0,0,0,0-1.77087Z" transform="translate(-0.00003 0)"/><path class="cls-1" d="M15.51264,71.3743a1.25266,1.25266,0,1,0-.00265.00264Z" transform="translate(-0.00003 0)"/><path class="cls-1" d="M8.43208,62.52293a1.25215,1.25215,0,1,0-.00056,1.77081l0,0,.00031-.00029A1.254,1.254,0,0,0,8.43208,62.52293Z" transform="translate(-0.00003 0)"/><path class="cls-1" d="M36.74967,90.84045a1.25214,1.25214,0,1,0,0,1.77081,1.25213,1.25213,0,0,0,0-1.77081Z" transform="translate(-0.00003 0)"/><path class="cls-1" d="M49.13793,106.7704a1.25217,1.25217,0,1,0-.0001-.0001Z" transform="translate(-0.00003 0)"/><path class="cls-1" d="M29.67166,83.76252a1.25215,1.25215,0,1,0-.00511,1.7708h0l.00262-.00261A1.25515,1.25515,0,0,0,29.67166,83.76252Z" transform="translate(-0.00003 0)"/><path class="cls-1" d="M42.05963,97.92129a1.25214,1.25214,0,1,0,1.7708-.00008l-.00249-.00247a1.249,1.249,0,0,0-1.76633.00057Z" transform="translate(-0.00003 0)"/><path class="cls-1" d="M72.14823,128.00989a1.25276,1.25276,0,1,0-.00259.00258Z" transform="translate(-0.00003 0)"/><circle class="cls-1" cx="64.18206" cy="120.04369" r="1.25219"/><path class="cls-1" d="M77.45571,135.08818a1.25214,1.25214,0,1,0,0-1.7708A1.25216,1.25216,0,0,0,77.45571,135.08818Z" transform="translate(-0.00003 0)"/><path class="cls-1" d="M57.98921,112.08a1.25219,1.25219,0,1,0-.00445,1.77086l.0022-.00219A1.25506,1.25506,0,0,0,57.98921,112.08Z" transform="translate(-0.00003 0)"/><path class="cls-1" d="M6.6585,135.08818a1.25219,1.25219,0,1,0,.005-1.77086l-.00249.00249A1.25747,1.25747,0,0,0,6.6585,135.08818Z" transform="translate(-0.00003 0)"/><path class="cls-1" d="M22.59088,133.31726a1.25219,1.25219,0,1,0,.00006.00006Z" transform="translate(-0.00003 0)"/><path class="cls-1" d="M15.51264,128.00989a1.25273,1.25273,0,1,0-.00263.00262Z" transform="translate(-0.00003 0)"/><circle class="cls-1" cx="7.54642" cy="120.04369" r="1.25219"/><path class="cls-1" d="M15.51015,113.85087a1.26212,1.26212,0,1,0-.00012.00012Z" transform="translate(-0.00003 0)"/><path class="cls-1" d="M27.89836,128.00989a1.25214,1.25214,0,1,0,0-1.7708A1.25216,1.25216,0,0,0,27.89836,128.00989Z" transform="translate(-0.00003 0)"/><path class="cls-1" d="M5.78559,104.1214a2.50254,2.50254,0,1,0,3.53913.00244l0,0-.00243-.00243A2.50123,2.50123,0,0,0,5.78559,104.1214Z" transform="translate(-0.00003 0)"/><path class="cls-1" d="M34.97891,135.09039a1.25316,1.25316,0,1,0-.00316-.00316Z" transform="translate(-0.00003 0)"/><path class="cls-1" d="M20.81751,120.92914a1.25219,1.25219,0,1,0,.00506-1.77086l-.0025.00249A1.25754,1.25754,0,0,0,20.81751,120.92914Z" transform="translate(-0.00003 0)"/><path class="cls-1" d="M136.94308,7.65813a1.25217,1.25217,0,1,0-1.77084,0l.00247.00246A1.24909,1.24909,0,0,0,136.94119,7.66Z" transform="translate(-0.00003 0)"/><path class="cls-1" d="M129.86508,28.89769a1.25205,1.25205,0,0,0,.00012-1.77069v0l-.00012-.00011a1.25178,1.25178,0,0,0-1.77028-.00051l0,0-.00051.0005a1.25215,1.25215,0,0,0,1.7708,1.77081Z" transform="translate(-0.00003 0)"/><path class="cls-1" d="M135.17229,35.97561a1.25215,1.25215,0,1,0,.005-1.7708l-.00263.00261A1.25706,1.25706,0,0,0,135.17229,35.97561Z" transform="translate(-0.00003 0)"/><path class="cls-1" d="M136.94308,64.29376a1.25214,1.25214,0,1,0-1.77079,0l0,0,.00243.00241a1.24911,1.24911,0,0,0,1.76648-.00052Z" transform="translate(-0.00003 0)"/><path class="cls-1" d="M129.86481,57.21547a1.25215,1.25215,0,0,0-1.76758-1.774l-.00322.00322a1.252,1.252,0,0,0-.00021,1.77058l.00021.00022A1.25437,1.25437,0,0,0,129.86481,57.21547Z" transform="translate(-0.00003 0)"/><path class="cls-1" d="M136.9453,78.45254a1.252,1.252,0,1,0-1.7706.00023l0,0A1.252,1.252,0,0,0,136.9453,78.45254Z" transform="translate(-0.00003 0)"/><path class="cls-1" d="M129.86481,71.37205A1.25217,1.25217,0,1,0,128.094,71.372l.001.001.00151.00151a1.24924,1.24924,0,0,0,1.76669-.00081h0Z" transform="translate(-0.00003 0)"/><path class="cls-1" d="M129.86481,14.7364a1.25216,1.25216,0,1,0-1.77082.00009l.00092.00091.00153.00151a1.24927,1.24927,0,0,0,1.76676-.00089l0,0Z" transform="translate(-0.00003 0)"/><path class="cls-1" d="M136.94553,21.81715a1.25213,1.25213,0,1,0-1.77082,0,1.25213,1.25213,0,0,0,1.77082,0Z" transform="translate(-0.00003 0)"/><path class="cls-1" d="M135.17471,50.13475a1.2522,1.2522,0,1,0,0-1.77093,1.2522,1.2522,0,0,0,0,1.77093Z" transform="translate(-0.00003 0)"/><path class="cls-1" d="M129.86481,41.2831a1.25214,1.25214,0,0,0-1.77269,1.76886l.00193.002a1.25214,1.25214,0,0,0,1.7775-1.76407l-.00674-.00674Z" transform="translate(-0.00003 0)"/><path class="cls-1" d="M129.86481,113.85111a1.25215,1.25215,0,0,0-1.76741-1.77419l-.00339.00339a1.25194,1.25194,0,0,0-.00037,1.77054l.00016,0,.00021.00022A1.25447,1.25447,0,0,0,129.86481,113.85111Z" transform="translate(-0.00003 0)"/><path class="cls-1" d="M136.94308,120.9294a1.25214,1.25214,0,1,0-1.77079,0l0,0,.00243.00242a1.24911,1.24911,0,0,0,1.76648-.00053Z" transform="translate(-0.00003 0)"/><path class="cls-1" d="M129.86723,126.23931a1.252,1.252,0,1,0-1.78349,1.75761l.01149.0115.00146.00145a1.24922,1.24922,0,0,0,1.76667-.00076l.00146-.00147A1.25107,1.25107,0,0,0,129.86723,126.23931Z" transform="translate(-0.00003 0)"/><path class="cls-1" d="M136.9453,135.08818a1.25217,1.25217,0,1,0-1.77083-.00063h0l.00026.00026A1.254,1.254,0,0,0,136.9453,135.08818Z" transform="translate(-0.00003 0)"/><path class="cls-1" d="M135.17471,106.7704a1.30122,1.30122,0,1,0-.0001-.0001Z" transform="translate(-0.00003 0)"/><path class="cls-1" d="M129.86723,99.69209a1.25214,1.25214,0,1,0-1.77516-.00448l.00192.00194A1.255,1.255,0,0,0,129.86723,99.69209Z" transform="translate(-0.00003 0)"/><path class="cls-1" d="M135.17229,92.61126a1.25216,1.25216,0,1,0,.005-1.77081h0l-.00256.00254A1.25733,1.25733,0,0,0,135.17229,92.61126Z" transform="translate(-0.00003 0)"/><path class="cls-1" d="M129.86481,85.53308a1.25176,1.25176,0,0,0,.00059-1.77025l0,0-.00029-.00029a1.25179,1.25179,0,0,0-1.77029-.00051l-.00051.00051a1.252,1.252,0,0,0,1.75681,1.78429Z" transform="translate(-0.00003 0)"/><path class="cls-1" d="M.886,113.85112a1.25217,1.25217,0,0,0,0-1.7708A1.245,1.245,0,0,0,0,111.71317v2.50358A1.25025,1.25025,0,0,0,.886,113.85112Z" transform="translate(-0.00003 0)"/><path class="cls-1" d="M.88628,28.8977A1.25219,1.25219,0,0,0,.88641,27.127l-.00013-.00012A1.24756,1.24756,0,0,0,0,26.76023v2.503A1.2502,1.2502,0,0,0,.88628,28.8977Z" transform="translate(-0.00003 0)"/><path class="cls-1" d="M.886,97.91875A1.247,1.247,0,0,0,0,97.5544v2.503a1.25063,1.25063,0,0,0,.88847-.36526A1.25752,1.25752,0,0,0,.886,97.91875Z" transform="translate(-0.00003 0)"/><path class="cls-1" d="M.886,57.21548a1.25217,1.25217,0,0,0,0-1.7708A1.24521,1.24521,0,0,0,0,55.07753v2.50364A1.25035,1.25035,0,0,0,.886,57.21548Z" transform="translate(-0.00003 0)"/><path class="cls-1" d="M.886,85.53309a1.25186,1.25186,0,0,0,.00055-1.77032l-.00031-.00023A1.24757,1.24757,0,0,0,0,83.39587v2.5029A1.25024,1.25024,0,0,0,.886,85.53309Z" transform="translate(-0.00003 0)"/><path class="cls-1" d="M0,125.87164v2.50347a1.24478,1.24478,0,0,0,.88452-.366l.00152-.00153a1.25114,1.25114,0,0,0,.00243-1.76831A1.25034,1.25034,0,0,0,0,125.87164Z" transform="translate(-0.00003 0)"/><path class="cls-1" d="M.88847,69.6037A1.25036,1.25036,0,0,0,0,69.23612v2.50364a1.24492,1.24492,0,0,0,.8844-.36611l.0016-.00158A1.25132,1.25132,0,0,0,.88847,69.6037Z" transform="translate(-0.00003 0)"/><path class="cls-1" d="M.886,41.28311A1.247,1.247,0,0,0,0,40.91876v2.503a1.25027,1.25027,0,0,0,.88847-.36532A1.25715,1.25715,0,0,0,.886,41.28311Z" transform="translate(-0.00003 0)"/><path class="cls-1" d="M0,12.60055v2.50357a1.24474,1.24474,0,0,0,.8844-.36611L.886,14.7364a1.25136,1.25136,0,0,0,.00243-1.76831A1.2504,1.2504,0,0,0,0,12.60055Z" transform="translate(-0.00003 0)"/><path class="cls-1" d="M141.55395,113.85112a1.25256,1.25256,0,0,1,.886-2.13795v2.50358A1.25027,1.25027,0,0,1,141.55395,113.85112Z" transform="translate(-0.00003 0)"/><path class="cls-1" d="M141.55373,28.8977a1.25217,1.25217,0,0,1-.00013-1.77075l.00013-.00012a1.24751,1.24751,0,0,1,.88627-.3666v2.503A1.25017,1.25017,0,0,1,141.55373,28.8977Z" transform="translate(-0.00003 0)"/><path class="cls-1" d="M141.55395,97.91875a1.247,1.247,0,0,1,.886-.36435v2.503a1.25075,1.25075,0,0,1-.886-2.13862Z" transform="translate(-0.00003 0)"/><path class="cls-1" d="M141.55395,57.21548a1.25256,1.25256,0,0,1,.886-2.138v2.50364A1.25038,1.25038,0,0,1,141.55395,57.21548Z" transform="translate(-0.00003 0)"/><path class="cls-1" d="M141.55395,85.53309a1.25189,1.25189,0,0,1-.00054-1.77032l.0003-.00023a1.24762,1.24762,0,0,1,.88628-.36667v2.50291A1.25034,1.25034,0,0,1,141.55395,85.53309Z" transform="translate(-0.00003 0)"/><path class="cls-1" d="M142.44,125.87164v2.50347a1.24484,1.24484,0,0,1-.88452-.366l-.00152-.00153a1.25058,1.25058,0,0,1,.886-2.136Z" transform="translate(-0.00003 0)"/><path class="cls-1" d="M141.55153,69.6037a1.25037,1.25037,0,0,1,.88847-.36758v2.50364a1.245,1.245,0,0,1-.8844-.36611l-.00163-.00158A1.25133,1.25133,0,0,1,141.55153,69.6037Z" transform="translate(-0.00003 0)"/><path class="cls-1" d="M141.55395,41.28311a1.24705,1.24705,0,0,1,.886-.36435v2.503a1.2508,1.2508,0,0,1-.886-2.13868Z" transform="translate(-0.00003 0)"/><path class="cls-1" d="M142.44,12.60055v2.50357a1.24474,1.24474,0,0,1-.8844-.36611l-.00163-.00158a1.25051,1.25051,0,0,1,.886-2.13588Z" transform="translate(-0.00003 0)"/><path class="cls-1" d="M27.5344,0a1.24758,1.24758,0,0,0,.3663.883A1.25217,1.25217,0,0,0,29.6715.88294,1.24769,1.24769,0,0,0,30.03774,0Z" transform="translate(-0.00003 0)"/><path class="cls-1" d="M40.452,0a2.49284,2.49284,0,0,0,.73222,1.76576,2.50076,2.50076,0,0,0,3.53661.00008l0,0A2.49235,2.49235,0,0,0,45.453,0Z" transform="translate(-0.00003 0)"/><path class="cls-1" d="M13.37332,0a1.24769,1.24769,0,0,0,.36624.88294L13.73962.883a1.25217,1.25217,0,0,0,1.7708,0A1.248,1.248,0,0,0,15.87666,0Z" transform="translate(-0.00003 0)"/><path class="cls-1" d="M55.85049,0a1.24726,1.24726,0,0,0,.36581.88032A1.25213,1.25213,0,0,0,57.987.8802,1.24764,1.24764,0,0,0,58.353,0Z" transform="translate(-0.00003 0)"/><path class="cls-1" d="M0,0V1.24863A1.25026,1.25026,0,0,0,.886.883,1.248,1.248,0,0,0,1.25227,0Z" transform="translate(-0.00003 0)"/><path class="cls-1" d="M127.72768,0a1.24754,1.24754,0,0,0,.36612.88276L128.094.883a1.25451,1.25451,0,0,0,1.77081,0A1.24789,1.24789,0,0,0,130.231,0Z" transform="translate(-0.00003 0)"/><path class="cls-1" d="M111.24747,0a2.4964,2.4964,0,0,0,.73076,1.76831,2.50261,2.50261,0,0,0,3.53918.00261A2.49464,2.49464,0,0,0,116.25153,0Z" transform="translate(-0.00003 0)"/><path class="cls-1" d="M141.18773,0a1.24793,1.24793,0,0,0,.36622.883,1.25027,1.25027,0,0,0,.886.36563V0Z" transform="translate(-0.00003 0)"/><path class="cls-1" d="M98.32651,0a1.24764,1.24764,0,0,0,.36622.88294L98.69279.883a1.25212,1.25212,0,0,0,1.77076,0h.00006A1.24793,1.24793,0,0,0,100.82983,0Z" transform="translate(-0.00003 0)"/><path class="cls-1" d="M84.17035,0a1.24792,1.24792,0,0,0,.36331.8804A1.25759,1.25759,0,0,0,86.307.883,1.24787,1.24787,0,0,0,86.67333,0Z" transform="translate(-0.00003 0)"/><path class="cls-1" d="M70.00884,0a1.24738,1.24738,0,0,0,.366.88263l.0003.00037a1.252,1.252,0,0,0,1.77026,0A1.24779,1.24779,0,0,0,72.51188,0Z" transform="translate(-0.00003 0)"/><path class="cls-1" d="M27.54428,142.44a1.25167,1.25167,0,0,1,2.50333,0Z" transform="translate(-0.00003 0)"/><path class="cls-1" d="M40.46184,142.44a2.50054,2.50054,0,0,1,5.00108,0Z" transform="translate(-0.00003 0)"/><path class="cls-1" d="M13.38319,142.44a1.24768,1.24768,0,0,1,.36624-.88293l.00006-.00006a1.25164,1.25164,0,0,1,2.137.883Z" transform="translate(-0.00003 0)"/><path class="cls-1" d="M55.86036,142.44a1.25128,1.25128,0,0,1,2.50255,0Z" transform="translate(-0.00003 0)"/><path class="cls-1" d="M0,142.44v-1.24859a1.25016,1.25016,0,0,1,.886.36563,1.24792,1.24792,0,0,1,.36624.883Z" transform="translate(-0.00003 0)"/><path class="cls-1" d="M127.73755,142.44a1.24748,1.24748,0,0,1,.36612-.88276l.00018-.00025a1.25164,1.25164,0,0,1,2.137.883Z" transform="translate(-0.00003 0)"/><path class="cls-1" d="M111.25735,142.44a2.502,2.502,0,0,1,5.004-.00491V142.44Z" transform="translate(-0.00003 0)"/><path class="cls-1" d="M141.18773,142.44a1.24937,1.24937,0,0,1,1.25014-1.24859H142.44V142.44Z" transform="translate(-0.00003 0)"/><path class="cls-1" d="M98.33638,142.44a1.24767,1.24767,0,0,1,.36623-.88293l.00006-.00006a1.25209,1.25209,0,0,1,1.77075,0h.00006a1.24787,1.24787,0,0,1,.36623.883Z" transform="translate(-0.00003 0)"/><path class="cls-1" d="M84.18022,142.44a1.2515,1.2515,0,0,1,2.503,0Z" transform="translate(-0.00003 0)"/><path class="cls-1" d="M70.01871,142.44a1.24737,1.24737,0,0,1,.366-.88264l.00032-.00037a1.2516,1.2516,0,0,1,2.13672.883Z" transform="translate(-0.00003 0)"/></svg>