<svg id="Layer_1" data-name="Layer 1" xmlns="http://www.w3.org/2000/svg" viewBox="0 0 142.44 142.44"><defs><style>.cls-1{fill:#a0a49f;}</style></defs><path class="cls-1" d="M34.97888,5.89286a1.25217,1.25217,0,1,0,1.77084,0l0,0a1.24975,1.24975,0,0,0-1.76741-.00339Z" transform="translate(0.00003 -0.0056)"/><path class="cls-1" d="M56.21838,27.13248a1.25215,1.25215,0,1,0,1.77081-.00012l-.00244-.00243a1.249,1.249,0,0,0-1.76634.0005Z" transform="translate(0.00003 -0.0056)"/><path class="cls-1" d="M43.8304,12.97371a1.25215,1.25215,0,1,0-.005,1.77081l.0025-.0025A1.25515,1.25515,0,0,0,43.8304,12.97371Z" transform="translate(0.00003 -0.0056)"/><path class="cls-1" d="M79.22624,50.14035a1.25219,1.25219,0,1,0-1.77088-.00019l.00007.00007A1.25424,1.25424,0,0,0,79.22624,50.14035Z" transform="translate(0.00003 -0.0056)"/><path class="cls-1" d="M72.1482,41.2915a1.25215,1.25215,0,1,0-.00488,1.77081l.00244-.00244A1.25516,1.25516,0,0,0,72.1482,41.2915Z" transform="translate(0.00003 -0.0056)"/><path class="cls-1" d="M63.29667,34.21077a1.25215,1.25215,0,1,0,1.77081-.00011l0,0a1.2496,1.2496,0,0,0-1.7672-.00348Z" transform="translate(0.00003 -0.0056)"/><path class="cls-1" d="M86.307,57.22107a1.25212,1.25212,0,1,0-1.77324-.00255A1.25213,1.25213,0,0,0,86.307,57.22107Z" transform="translate(0.00003 -0.0056)"/><path class="cls-1" d="M100.46355,71.37765a1.25219,1.25219,0,1,0-1.77087-.00005l.00231.0023A1.25158,1.25158,0,0,0,100.46355,71.37765Z" transform="translate(0.00003 -0.0056)"/><path class="cls-1" d="M93.38526,62.52844a1.25207,1.25207,0,1,0,.00023.00023Z" transform="translate(0.00003 -0.0056)"/><path class="cls-1" d="M107.54412,78.45814a1.25217,1.25217,0,1,0-1.77083-.00015l0,0A1.25455,1.25455,0,0,0,107.54412,78.45814Z" transform="translate(0.00003 -0.0056)"/><path class="cls-1" d="M114.62482,85.53892a1.25214,1.25214,0,1,0-1.77331-.00261A1.25214,1.25214,0,0,0,114.62482,85.53892Z" transform="translate(0.00003 -0.0056)"/><path class="cls-1" d="M121.70305,90.84629a1.21581,1.21581,0,1,0,.00017.00016Z" transform="translate(0.00003 -0.0056)"/><path class="cls-1" d="M50.90846,21.82256a1.252,1.252,0,1,0-1.77057.00019A1.252,1.252,0,0,0,50.90846,21.82256Z" transform="translate(0.00003 -0.0056)"/><path class="cls-1" d="M63.29667,20.05418a1.25214,1.25214,0,1,0,1.77079-.00012l-.00242-.00242A1.25124,1.25124,0,0,0,63.29667,20.05418Z" transform="translate(0.00003 -0.0056)"/><path class="cls-1" d="M72.14576,28.90329a1.25219,1.25219,0,1,0-1.77087-.00007l.00007.00007A1.25233,1.25233,0,0,0,72.14576,28.90329Z" transform="translate(0.00003 -0.0056)"/><path class="cls-1" d="M107.54184,64.29936a1.25219,1.25219,0,1,0-1.77087,0l.00231.0023a1.24924,1.24924,0,0,0,1.7667-.00038Z" transform="translate(0.00003 -0.0056)"/><path class="cls-1" d="M76.58252,33.33a2.50254,2.50254,0,1,0,3.53912.00255L80.11909,33.33A2.50116,2.50116,0,0,0,76.58252,33.33Z" transform="translate(0.00003 -0.0056)"/><path class="cls-1" d="M50.90607,7.66373a1.25217,1.25217,0,1,0-1.77084-.00016l.00266.00265a1.249,1.249,0,0,0,1.76635-.00065Z" transform="translate(0.00003 -0.0056)"/><path class="cls-1" d="M56.21619,12.97371a1.252,1.252,0,1,0,1.77074,0A1.252,1.252,0,0,0,56.21619,12.97371Z" transform="translate(0.00003 -0.0056)"/><path class="cls-1" d="M115.5224,72.27a2.50415,2.50415,0,1,0-3.54161,0A2.50416,2.50416,0,0,0,115.5224,72.27Z" transform="translate(0.00003 -0.0056)"/><path class="cls-1" d="M93.38526,50.14278a1.25212,1.25212,0,1,0-1.77336-.00255A1.25213,1.25213,0,0,0,93.38526,50.14278Z" transform="translate(0.00003 -0.0056)"/><path class="cls-1" d="M86.30453,43.06205a1.25219,1.25219,0,1,0-1.77087-.00006l.00007.00006a1.25206,1.25206,0,0,0,1.77069.00011Z" transform="translate(0.00003 -0.0056)"/><path class="cls-1" d="M100.46355,57.22107a1.25214,1.25214,0,1,0-1.7708,0A1.25215,1.25215,0,0,0,100.46355,57.22107Z" transform="translate(0.00003 -0.0056)"/><path class="cls-1" d="M121.70305,78.46063a1.25212,1.25212,0,1,0-1.77336-.00261A1.25213,1.25213,0,0,0,121.70305,78.46063Z" transform="translate(0.00003 -0.0056)"/><path class="cls-1" d="M79.22624,7.66622a1.25219,1.25219,0,1,0-1.773-.0028A1.25221,1.25221,0,0,0,79.22624,7.66622Z" transform="translate(0.00003 -0.0056)"/><path class="cls-1" d="M100.46318,28.90329a1.25213,1.25213,0,1,0-1.77078-.00072l.00035.00035a1.25179,1.25179,0,0,0,1.7703.00049Z" transform="translate(0.00003 -0.0056)"/><path class="cls-1" d="M84.534,14.74415a1.25193,1.25193,0,1,0-.00032-1.77049l-.00005,0A1.25408,1.25408,0,0,0,84.534,14.74415Z" transform="translate(0.00003 -0.0056)"/><path class="cls-1" d="M91.61469,21.825a1.25135,1.25135,0,1,0-.00386-.00385Z" transform="translate(0.00003 -0.0056)"/><path class="cls-1" d="M105.77109,35.98121a1.25189,1.25189,0,1,0,.00465-1.77044l-.0024.0024A1.257,1.257,0,0,0,105.77109,35.98121Z" transform="translate(0.00003 -0.0056)"/><path class="cls-1" d="M112.85176,43.06205a1.252,1.252,0,1,0-.0003-1.77056l0,0A1.25413,1.25413,0,0,0,112.85176,43.06205Z" transform="translate(0.00003 -0.0056)"/><path class="cls-1" d="M119.93231,50.1426a1.25115,1.25115,0,1,0-.00353-.00352Z" transform="translate(0.00003 -0.0056)"/><path class="cls-1" d="M72.1482,14.74427a1.25214,1.25214,0,1,0-1.77324-.00255A1.25215,1.25215,0,0,0,72.1482,14.74427Z" transform="translate(0.00003 -0.0056)"/><path class="cls-1" d="M65.06771,5.89286a1.25214,1.25214,0,1,0-.00047,1.7708l.00023-.00024A1.25421,1.25421,0,0,0,65.06771,5.89286Z" transform="translate(0.00003 -0.0056)"/><path class="cls-1" d="M77.45568,21.82244a1.25207,1.25207,0,1,0-.0001-.0001Z" transform="translate(0.00003 -0.0056)"/><path class="cls-1" d="M93.38526,34.21041a1.25214,1.25214,0,1,0,0,1.7708A1.25215,1.25215,0,0,0,93.38526,34.21041Z" transform="translate(0.00003 -0.0056)"/><path class="cls-1" d="M100.466,43.06205a1.25214,1.25214,0,1,0-1.77323-.00254A1.25215,1.25215,0,0,0,100.466,43.06205Z" transform="translate(0.00003 -0.0056)"/><path class="cls-1" d="M86.3072,27.13236a1.25219,1.25219,0,1,0-.00493,1.77086l.0025-.00249A1.25511,1.25511,0,0,0,86.3072,27.13236Z" transform="translate(0.00003 -0.0056)"/><path class="cls-1" d="M105.77347,50.14027a1.31617,1.31617,0,1,0-.0001-.00011Z" transform="translate(0.00003 -0.0056)"/><path class="cls-1" d="M114.62257,57.21852a1.25214,1.25214,0,1,0-1.7708,0l.00224.00224A1.25144,1.25144,0,0,0,114.62257,57.21852Z" transform="translate(0.00003 -0.0056)"/><path class="cls-1" d="M121.70305,62.52826a1.25213,1.25213,0,1,0,0,1.77081A1.25213,1.25213,0,0,0,121.70305,62.52826Z" transform="translate(0.00003 -0.0056)"/><circle class="cls-1" cx="14.62469" cy="28.01227" r="1.25219"/><path class="cls-1" d="M27.89833,41.2915a1.252,1.252,0,1,0,1.77081,0A1.252,1.252,0,0,0,27.89833,41.2915Z" transform="translate(0.00003 -0.0056)"/><path class="cls-1" d="M63.29667,76.68982a1.25214,1.25214,0,1,0,1.77079,0l-.00255-.00255A1.25132,1.25132,0,0,0,63.29667,76.68982Z" transform="translate(0.00003 -0.0056)"/><path class="cls-1" d="M36.74964,50.14278a1.25212,1.25212,0,1,0-1.77336-.00243A1.25211,1.25211,0,0,0,36.74964,50.14278Z" transform="translate(0.00003 -0.0056)"/><path class="cls-1" d="M56.21581,69.6091a1.25219,1.25219,0,1,0,1.77094,0A1.2522,1.2522,0,0,0,56.21581,69.6091Z" transform="translate(0.00003 -0.0056)"/><path class="cls-1" d="M42.057,57.22107a1.25217,1.25217,0,1,0,0-1.77084l0,0A1.25444,1.25444,0,0,0,42.057,57.22107Z" transform="translate(0.00003 -0.0056)"/><path class="cls-1" d="M22.5883,35.98158a1.25216,1.25216,0,1,0-1.77082-.00012L20.82,35.984a1.24915,1.24915,0,0,0,1.76656-.00073Z" transform="translate(0.00003 -0.0056)"/><path class="cls-1" d="M6.661,20.05418a1.25214,1.25214,0,1,0,1.7708,0l-.00256-.00255A1.25144,1.25144,0,0,0,6.661,20.05418Z" transform="translate(0.00003 -0.0056)"/><path class="cls-1" d="M119.92969,135.09378a1.25215,1.25215,0,1,0,.00506-1.7708l-.00244.00243A1.25747,1.25747,0,0,0,119.92969,135.09378Z" transform="translate(0.00003 -0.0056)"/><path class="cls-1" d="M112.85145,126.24469a1.25216,1.25216,0,1,0,1.77087,0A1.25214,1.25214,0,0,0,112.85145,126.24469Z" transform="translate(0.00003 -0.0056)"/><path class="cls-1" d="M72.14576,85.53892a1.25217,1.25217,0,1,0-.00009.00009Z" transform="translate(0.00003 -0.0056)"/><path class="cls-1" d="M77.45543,92.6194a1.25309,1.25309,0,1,0-.0032-.0032Z" transform="translate(0.00003 -0.0056)"/><path class="cls-1" d="M93.38526,106.77844a1.25214,1.25214,0,1,0-1.77336-.00243A1.25215,1.25215,0,0,0,93.38526,106.77844Z" transform="translate(0.00003 -0.0056)"/><circle class="cls-1" cx="85.4191" cy="98.80669" r="1.25219"/><path class="cls-1" d="M100.46355,113.85671a1.19652,1.19652,0,1,0-.0001.00011Z" transform="translate(0.00003 -0.0056)"/><path class="cls-1" d="M107.54184,120.935a1.25219,1.25219,0,1,0-1.77087-.00011l.00231.0023a1.24937,1.24937,0,0,0,1.76687-.00049Z" transform="translate(0.00003 -0.0056)"/><path class="cls-1" d="M50.90607,64.29936a1.25214,1.25214,0,1,0-1.7708-.00016l.00262.0026a1.24908,1.24908,0,0,0,1.76647-.00073Z" transform="translate(0.00003 -0.0056)"/><path class="cls-1" d="M49.13527,92.61686a1.2522,1.2522,0,1,0,.00524-1.77086l-.00262.0026A1.25757,1.25757,0,0,0,49.13527,92.61686Z" transform="translate(0.00003 -0.0056)"/><path class="cls-1" d="M6.65872,48.36942a1.25224,1.25224,0,1,0,1.77335.00262A1.25223,1.25223,0,0,0,6.65872,48.36942Z" transform="translate(0.00003 -0.0056)"/><path class="cls-1" d="M20.81748,64.29906a1.25215,1.25215,0,1,0,.00512-1.77081l-.00256.00256A1.25747,1.25747,0,0,0,20.81748,64.29906Z" transform="translate(0.00003 -0.0056)"/><path class="cls-1" d="M34.97906,78.46063a1.25146,1.25146,0,1,0-.00365-.00364Z" transform="translate(0.00003 -0.0056)"/><path class="cls-1" d="M42.057,83.76776a1.25221,1.25221,0,1,0,1.7709,0l0,0A1.25452,1.25452,0,0,0,42.057,83.76776Z" transform="translate(0.00003 -0.0056)"/><path class="cls-1" d="M27.89833,71.3799a1.25214,1.25214,0,1,0,0-1.7708A1.25215,1.25215,0,0,0,27.89833,71.3799Z" transform="translate(0.00003 -0.0056)"/><path class="cls-1" d="M15.51012,57.22089a1.252,1.252,0,1,0-1.77058.00015l0,0a1.25188,1.25188,0,0,0,1.77043,0Z" transform="translate(0.00003 -0.0056)"/><path class="cls-1" d="M56.21619,99.69769a1.25212,1.25212,0,1,0,0-1.7708A1.25212,1.25212,0,0,0,56.21619,99.69769Z" transform="translate(0.00003 -0.0056)"/><path class="cls-1" d="M72.14576,113.85647a1.25223,1.25223,0,1,0-1.77093,0A1.25224,1.25224,0,0,0,72.14576,113.85647Z" transform="translate(0.00003 -0.0056)"/><path class="cls-1" d="M65.06524,106.776a1.25224,1.25224,0,1,0-1.77093-.00018l.00237.00236a1.24913,1.24913,0,0,0,1.76656-.00019Z" transform="translate(0.00003 -0.0056)"/><path class="cls-1" d="M79.22653,120.93719a1.25215,1.25215,0,1,0-1.77337-.00243A1.25214,1.25214,0,0,0,79.22653,120.93719Z" transform="translate(0.00003 -0.0056)"/><path class="cls-1" d="M84.534,128.01549a1.25214,1.25214,0,1,0,0-1.7708A1.25214,1.25214,0,0,0,84.534,128.01549Z" transform="translate(0.00003 -0.0056)"/><path class="cls-1" d="M91.61227,133.323a1.25212,1.25212,0,1,0,1.773.00225A1.25212,1.25212,0,0,0,91.61227,133.323Z" transform="translate(0.00003 -0.0056)"/><path class="cls-1" d="M43.82791,28.903a1.23252,1.23252,0,1,0-.00031.00032Z" transform="translate(0.00003 -0.0056)"/><path class="cls-1" d="M34.97906,21.825a1.25142,1.25142,0,1,0-.00381-.0038Z" transform="translate(0.00003 -0.0056)"/><path class="cls-1" d="M49.13527,35.98121a1.252,1.252,0,1,0,.005-1.77059l-.00241.0024A1.2572,1.2572,0,0,0,49.13527,35.98121Z" transform="translate(0.00003 -0.0056)"/><path class="cls-1" d="M27.89833,14.74427a1.252,1.252,0,1,0,0-1.77093A1.252,1.252,0,0,0,27.89833,14.74427Z" transform="translate(0.00003 -0.0056)"/><path class="cls-1" d="M72.14576,57.22089a1.25215,1.25215,0,1,0-.00012.00012Z" transform="translate(0.00003 -0.0056)"/><path class="cls-1" d="M63.2969,50.14278a1.253,1.253,0,1,0-.0039-.0039Z" transform="translate(0.00003 -0.0056)"/><path class="cls-1" d="M56.21619,43.06205a1.252,1.252,0,1,0,0-1.7708A1.252,1.252,0,0,0,56.21619,43.06205Z" transform="translate(0.00003 -0.0056)"/><path class="cls-1" d="M22.59085,7.666a1.25214,1.25214,0,1,0-1.77337-.00255A1.25214,1.25214,0,0,0,22.59085,7.666Z" transform="translate(0.00003 -0.0056)"/><path class="cls-1" d="M77.45312,64.29906a1.252,1.252,0,1,0,.00491-1.77059l-.00235.00234A1.25715,1.25715,0,0,0,77.45312,64.29906Z" transform="translate(0.00003 -0.0056)"/><path class="cls-1" d="M86.30478,71.3799a1.25214,1.25214,0,1,0-1.7708,0A1.25213,1.25213,0,0,0,86.30478,71.3799Z" transform="translate(0.00003 -0.0056)"/><path class="cls-1" d="M100.46355,85.53868a1.25219,1.25219,0,1,0-1.77087-.00007l.00007.00007a1.25207,1.25207,0,0,0,1.7707.0001Z" transform="translate(0.00003 -0.0056)"/><path class="cls-1" d="M91.61227,76.68727a1.25214,1.25214,0,1,0,1.7728.00255A1.25214,1.25214,0,0,0,91.61227,76.68727Z" transform="translate(0.00003 -0.0056)"/><path class="cls-1" d="M105.77091,92.61686a1.252,1.252,0,1,0,.00489-1.77057l-.00233.00231A1.25717,1.25717,0,0,0,105.77091,92.61686Z" transform="translate(0.00003 -0.0056)"/><path class="cls-1" d="M112.85176,99.69769a1.252,1.252,0,1,0,0-1.7708A1.252,1.252,0,0,0,112.85176,99.69769Z" transform="translate(0.00003 -0.0056)"/><path class="cls-1" d="M119.93231,106.77817a1.24936,1.24936,0,1,0-.00364-.00362Z" transform="translate(0.00003 -0.0056)"/><path class="cls-1" d="M43.8304,43.06205a1.25214,1.25214,0,1,0-1.77336-.00254A1.25214,1.25214,0,0,0,43.8304,43.06205Z" transform="translate(0.00003 -0.0056)"/><path class="cls-1" d="M72.1482,71.3799a1.25214,1.25214,0,1,0-1.77337-.0026A1.25214,1.25214,0,0,0,72.1482,71.3799Z" transform="translate(0.00003 -0.0056)"/><path class="cls-1" d="M20.82,21.82256a1.25219,1.25219,0,1,0,0-1.77092,1.25219,1.25219,0,0,0,0,1.77092Z" transform="translate(0.00003 -0.0056)"/><path class="cls-1" d="M29.67163,27.13248a1.25215,1.25215,0,1,0-.00505,1.7708l.00256-.00255A1.25506,1.25506,0,0,0,29.67163,27.13248Z" transform="translate(0.00003 -0.0056)"/><path class="cls-1" d="M65.06747,62.52826a1.25214,1.25214,0,1,0,0,1.77081A1.25213,1.25213,0,0,0,65.06747,62.52826Z" transform="translate(0.00003 -0.0056)"/><path class="cls-1" d="M57.98942,55.45027a1.25215,1.25215,0,1,0-.00506,1.7708l.00256-.00255A1.25512,1.25512,0,0,0,57.98942,55.45027Z" transform="translate(0.00003 -0.0056)"/><path class="cls-1" d="M49.1379,50.14035a1.2522,1.2522,0,1,0,0-1.77093,1.2522,1.2522,0,0,0,0,1.77093Z" transform="translate(0.00003 -0.0056)"/><path class="cls-1" d="M36.74986,34.21077a1.25216,1.25216,0,1,0-.00056,1.77082l.00038-.00038A1.254,1.254,0,0,0,36.74986,34.21077Z" transform="translate(0.00003 -0.0056)"/><path class="cls-1" d="M15.51261,14.74427a1.25219,1.25219,0,1,0-1.77342-.00255A1.25219,1.25219,0,0,0,15.51261,14.74427Z" transform="translate(0.00003 -0.0056)"/><path class="cls-1" d="M8.43205,5.89286a1.25217,1.25217,0,1,0,0,1.77087A1.25217,1.25217,0,0,0,8.43205,5.89286Z" transform="translate(0.00003 -0.0056)"/><path class="cls-1" d="M77.45568,78.45814a1.29179,1.29179,0,1,0-.00016-.00017Z" transform="translate(0.00003 -0.0056)"/><path class="cls-1" d="M93.38526,90.84605a1.25215,1.25215,0,1,0,0,1.77081A1.25214,1.25214,0,0,0,93.38526,90.84605Z" transform="translate(0.00003 -0.0056)"/><path class="cls-1" d="M100.466,99.69769a1.25214,1.25214,0,1,0-1.77323-.00255A1.25213,1.25213,0,0,0,100.466,99.69769Z" transform="translate(0.00003 -0.0056)"/><path class="cls-1" d="M86.307,83.76776a1.25217,1.25217,0,1,0-.00448,1.77083l.00229-.00228A1.25507,1.25507,0,0,0,86.307,83.76776Z" transform="translate(0.00003 -0.0056)"/><path class="cls-1" d="M114.62482,112.08556a1.25219,1.25219,0,1,0-.00446,1.77086l.00221-.0022A1.25493,1.25493,0,0,0,114.62482,112.08556Z" transform="translate(0.00003 -0.0056)"/><path class="cls-1" d="M121.70305,120.93474a1.25216,1.25216,0,1,0-1.77082-.00008l.00008.00008A1.25453,1.25453,0,0,0,121.70305,120.93474Z" transform="translate(0.00003 -0.0056)"/><path class="cls-1" d="M105.77347,106.776a1.25217,1.25217,0,1,0-.0001-.0001Z" transform="translate(0.00003 -0.0056)"/><path class="cls-1" d="M121.70305,7.66338a1.25212,1.25212,0,1,0-1.77077,0l0,0A1.25391,1.25391,0,0,0,121.70305,7.66338Z" transform="translate(0.00003 -0.0056)"/><path class="cls-1" d="M112.854,27.13248a1.25215,1.25215,0,1,0,1.77082-.00005l-.00251-.0025a1.249,1.249,0,0,0-1.76634.00057Z" transform="translate(0.00003 -0.0056)"/><path class="cls-1" d="M107.54412,21.82256a1.2522,1.2522,0,1,0-1.77088-.00007l.00007.00007A1.25441,1.25441,0,0,0,107.54412,21.82256Z" transform="translate(0.00003 -0.0056)"/><path class="cls-1" d="M91.61446,7.66373a1.21779,1.21779,0,1,0-.00018-.00017Z" transform="translate(0.00003 -0.0056)"/><path class="cls-1" d="M98.69275,12.97115a1.25114,1.25114,0,1,0,.0013-.0013Z" transform="translate(0.00003 -0.0056)"/><path class="cls-1" d="M119.93231,35.98158a1.25207,1.25207,0,1,0-.00011-.00011Z" transform="translate(0.00003 -0.0056)"/><path class="cls-1" d="M107.54184,7.66373a1.25221,1.25221,0,1,0-1.77089,0l.00252.00252a1.24917,1.24917,0,0,0,1.7666-.00071Z" transform="translate(0.00003 -0.0056)"/><circle class="cls-1" cx="113.73692" cy="13.85326" r="1.25217"/><path class="cls-1" d="M119.92969,21.82256a1.25219,1.25219,0,1,0,.00511-1.77086l-.00249.00249A1.25752,1.25752,0,0,0,119.92969,21.82256Z" transform="translate(0.00003 -0.0056)"/><path class="cls-1" d="M8.43183,78.46063a1.25214,1.25214,0,1,0-1.77336-.00249A1.25214,1.25214,0,0,0,8.43183,78.46063Z" transform="translate(0.00003 -0.0056)"/><path class="cls-1" d="M15.51012,85.53892a1.22627,1.22627,0,1,0-.00023.00024Z" transform="translate(0.00003 -0.0056)"/><path class="cls-1" d="M42.057,113.85671a1.25217,1.25217,0,1,0,0-1.77084l0,0A1.25455,1.25455,0,0,0,42.057,113.85671Z" transform="translate(0.00003 -0.0056)"/><path class="cls-1" d="M34.97888,105.00761a1.25214,1.25214,0,1,0,1.7708.00006l-.00262-.00261A1.25139,1.25139,0,0,0,34.97888,105.00761Z" transform="translate(0.00003 -0.0056)"/><path class="cls-1" d="M27.898,97.92689a1.25214,1.25214,0,1,0,1.7708,0A1.25215,1.25215,0,0,0,27.898,97.92689Z" transform="translate(0.00003 -0.0056)"/><path class="cls-1" d="M22.5883,92.61715a1.25215,1.25215,0,1,0-1.77082-.00005l.00256.00255a1.249,1.249,0,0,0,1.76628-.00051Z" transform="translate(0.00003 -0.0056)"/><path class="cls-1" d="M50.90621,120.935a1.25219,1.25219,0,1,0-1.77087,0l.00219.00218a1.24925,1.24925,0,0,0,1.76671-.00022Z" transform="translate(0.00003 -0.0056)"/><path class="cls-1" d="M65.06747,135.09621a1.25214,1.25214,0,1,0-1.77336-.00243A1.25215,1.25215,0,0,0,65.06747,135.09621Z" transform="translate(0.00003 -0.0056)"/><path class="cls-1" d="M56.21581,126.24469a1.25219,1.25219,0,1,0,1.77094,0A1.25219,1.25219,0,0,0,56.21581,126.24469Z" transform="translate(0.00003 -0.0056)"/><path class="cls-1" d="M6.661,92.61715a1.19652,1.19652,0,1,0-.00011-.0001Z" transform="translate(0.00003 -0.0056)"/><path class="cls-1" d="M27.90059,112.08591a1.25214,1.25214,0,1,0,1.7708,0l-.00256-.00255a1.24909,1.24909,0,0,0-1.76647.00078Z" transform="translate(0.00003 -0.0056)"/><path class="cls-1" d="M15.51012,99.69544a1.25223,1.25223,0,1,0-1.77092-.00016l.00261.0026A1.2514,1.2514,0,0,0,15.51012,99.69544Z" transform="translate(0.00003 -0.0056)"/><path class="cls-1" d="M22.59067,106.776a1.25224,1.25224,0,1,0-1.77094,0A1.25224,1.25224,0,0,0,22.59067,106.776Z" transform="translate(0.00003 -0.0056)"/><path class="cls-1" d="M34.97888,119.1642a1.24975,1.24975,0,1,0,.00339-.00339Z" transform="translate(0.00003 -0.0056)"/><path class="cls-1" d="M42.057,126.24238a1.24646,1.24646,0,1,0,.00129-.0013Z" transform="translate(0.00003 -0.0056)"/><path class="cls-1" d="M50.90846,135.09378a1.25219,1.25219,0,1,0-1.77094,0A1.25219,1.25219,0,0,0,50.90846,135.09378Z" transform="translate(0.00003 -0.0056)"/><path class="cls-1" d="M5.78556,33.33032a2.5041,2.5041,0,1,0,.00249-.00248Z" transform="translate(0.00003 -0.0056)"/><path class="cls-1" d="M27.90059,55.45027a1.25214,1.25214,0,1,0,1.7708,0l-.00256-.00255a1.249,1.249,0,0,0-1.76633.00063Z" transform="translate(0.00003 -0.0056)"/><path class="cls-1" d="M65.06747,90.84635a1.19652,1.19652,0,1,0,.00011.0001Z" transform="translate(0.00003 -0.0056)"/><path class="cls-1" d="M72.148,97.92689a1.25213,1.25213,0,1,0-.00442,1.77078l.00223-.00223A1.25513,1.25513,0,0,0,72.148,97.92689Z" transform="translate(0.00003 -0.0056)"/><path class="cls-1" d="M41.18384,68.72865a2.50255,2.50255,0,1,0,3.53914.00247l-.00246-.00247A2.50122,2.50122,0,0,0,41.18384,68.72865Z" transform="translate(0.00003 -0.0056)"/><path class="cls-1" d="M22.59067,50.14035A1.252,1.252,0,1,0,20.82,50.1406,1.252,1.252,0,0,0,22.59067,50.14035Z" transform="translate(0.00003 -0.0056)"/><path class="cls-1" d="M34.97888,64.29936a1.25207,1.25207,0,1,0-.0001-.0001Z" transform="translate(0.00003 -0.0056)"/><path class="cls-1" d="M107.54412,135.09378a1.25214,1.25214,0,1,0-1.77081,0A1.25214,1.25214,0,0,0,107.54412,135.09378Z" transform="translate(0.00003 -0.0056)"/><path class="cls-1" d="M50.90846,78.45814a1.25222,1.25222,0,1,0-1.77094,0A1.25223,1.25223,0,0,0,50.90846,78.45814Z" transform="translate(0.00003 -0.0056)"/><path class="cls-1" d="M76.58252,104.12717a2.50415,2.50415,0,1,0,3.5414.00483l-.00258-.00258a2.50149,2.50149,0,0,0-3.53766-.00341Z" transform="translate(0.00003 -0.0056)"/><path class="cls-1" d="M84.53623,112.08591a1.25212,1.25212,0,1,0,1.77077-.0001l-.00247-.00246a1.24908,1.24908,0,0,0-1.76647.00072Z" transform="translate(0.00003 -0.0056)"/><path class="cls-1" d="M56.21838,83.76812a1.25214,1.25214,0,1,0,1.77079-.00019l-.00242-.00242a1.249,1.249,0,0,0-1.76639.00062Z" transform="translate(0.00003 -0.0056)"/><path class="cls-1" d="M93.38526,119.1642a1.252,1.252,0,1,0,.00027.00027Z" transform="translate(0.00003 -0.0056)"/><path class="cls-1" d="M100.46355,128.01323a1.25217,1.25217,0,1,0-1.77082,0l.00226.00226A1.25144,1.25144,0,0,0,100.46355,128.01323Z" transform="translate(0.00003 -0.0056)"/><path class="cls-1" d="M15.51012,43.05987a1.25224,1.25224,0,1,0-1.77094-.00018l.00263.00262A1.2515,1.2515,0,0,0,15.51012,43.05987Z" transform="translate(0.00003 -0.0056)"/><path class="cls-1" d="M22.59085,76.68727a1.25217,1.25217,0,1,0,0,1.77087,1.25217,1.25217,0,0,0,0-1.77087Z" transform="translate(0.00003 -0.0056)"/><path class="cls-1" d="M15.51261,71.3799a1.25214,1.25214,0,1,0-1.77342-.0026A1.25213,1.25213,0,0,0,15.51261,71.3799Z" transform="translate(0.00003 -0.0056)"/><path class="cls-1" d="M8.43205,62.52853a1.25215,1.25215,0,1,0-.00055,1.7708l.00031-.00029A1.254,1.254,0,0,0,8.43205,62.52853Z" transform="translate(0.00003 -0.0056)"/><path class="cls-1" d="M36.74964,90.84605a1.25214,1.25214,0,1,0,0,1.77081A1.25214,1.25214,0,0,0,36.74964,90.84605Z" transform="translate(0.00003 -0.0056)"/><path class="cls-1" d="M49.1379,106.776a1.25217,1.25217,0,1,0-.0001-.0001Z" transform="translate(0.00003 -0.0056)"/><path class="cls-1" d="M29.67163,83.76812a1.25215,1.25215,0,1,0-.00511,1.7708l.00262-.00261A1.25515,1.25515,0,0,0,29.67163,83.76812Z" transform="translate(0.00003 -0.0056)"/><path class="cls-1" d="M42.0596,97.92689a1.25214,1.25214,0,1,0,1.7708-.00008l-.00249-.00247a1.249,1.249,0,0,0-1.76633.00057Z" transform="translate(0.00003 -0.0056)"/><path class="cls-1" d="M72.1482,128.01549a1.25214,1.25214,0,1,0-1.77337-.00255A1.25214,1.25214,0,0,0,72.1482,128.01549Z" transform="translate(0.00003 -0.0056)"/><circle class="cls-1" cx="64.18209" cy="120.04369" r="1.25219"/><path class="cls-1" d="M77.45568,135.09378a1.25214,1.25214,0,1,0,0-1.7708A1.25215,1.25215,0,0,0,77.45568,135.09378Z" transform="translate(0.00003 -0.0056)"/><path class="cls-1" d="M57.98918,112.08556a1.25219,1.25219,0,1,0-.00445,1.77086l.0022-.0022A1.25505,1.25505,0,0,0,57.98918,112.08556Z" transform="translate(0.00003 -0.0056)"/><path class="cls-1" d="M6.65847,135.09378a1.25219,1.25219,0,1,0,.005-1.77086l-.00249.00249A1.25747,1.25747,0,0,0,6.65847,135.09378Z" transform="translate(0.00003 -0.0056)"/><path class="cls-1" d="M22.59085,133.32286a1.25219,1.25219,0,1,0,0,1.77092,1.25219,1.25219,0,0,0,0-1.77092Z" transform="translate(0.00003 -0.0056)"/><path class="cls-1" d="M15.51261,128.01549a1.25214,1.25214,0,1,0-1.77342-.00255A1.25214,1.25214,0,0,0,15.51261,128.01549Z" transform="translate(0.00003 -0.0056)"/><circle class="cls-1" cx="7.54645" cy="120.04369" r="1.25219"/><path class="cls-1" d="M15.51012,113.85647a1.25215,1.25215,0,1,0-.00012.00012Z" transform="translate(0.00003 -0.0056)"/><path class="cls-1" d="M27.89833,128.01549a1.25214,1.25214,0,1,0,0-1.7708A1.25215,1.25215,0,0,0,27.89833,128.01549Z" transform="translate(0.00003 -0.0056)"/><path class="cls-1" d="M5.78556,104.127a2.50254,2.50254,0,1,0,3.53912.00243l-.00243-.00243A2.50123,2.50123,0,0,0,5.78556,104.127Z" transform="translate(0.00003 -0.0056)"/><path class="cls-1" d="M34.97888,135.096a1.25316,1.25316,0,1,0-.00316-.00316Z" transform="translate(0.00003 -0.0056)"/><path class="cls-1" d="M20.81748,120.93474a1.25219,1.25219,0,1,0,.00506-1.77086l-.0025.00249A1.25754,1.25754,0,0,0,20.81748,120.93474Z" transform="translate(0.00003 -0.0056)"/><path class="cls-1" d="M136.94306,7.66373a1.25217,1.25217,0,1,0-1.77084,0l.00247.00246a1.24909,1.24909,0,0,0,1.76648-.00058Z" transform="translate(0.00003 -0.0056)"/><path class="cls-1" d="M129.86505,28.90329a1.25207,1.25207,0,0,0,.00012-1.7707l-.00012-.00011a1.25178,1.25178,0,0,0-1.7703-.0005l-.0005.0005a1.25215,1.25215,0,0,0,1.7708,1.77081Z" transform="translate(0.00003 -0.0056)"/><path class="cls-1" d="M135.17226,35.98121a1.25215,1.25215,0,1,0,.00505-1.7708l-.00262.00261A1.25706,1.25706,0,0,0,135.17226,35.98121Z" transform="translate(0.00003 -0.0056)"/><path class="cls-1" d="M136.94306,64.29936a1.25214,1.25214,0,1,0-1.77079,0l.00242.00241a1.2491,1.2491,0,0,0,1.76648-.00053Z" transform="translate(0.00003 -0.0056)"/><path class="cls-1" d="M129.86477,57.22107a1.25215,1.25215,0,0,0-1.76758-1.774l-.00322.00322a1.252,1.252,0,0,0-.00022,1.77058l.00022.00022A1.25437,1.25437,0,0,0,129.86477,57.22107Z" transform="translate(0.00003 -0.0056)"/><path class="cls-1" d="M136.94526,78.45814a1.252,1.252,0,1,0-1.77057.00025A1.252,1.252,0,0,0,136.94526,78.45814Z" transform="translate(0.00003 -0.0056)"/><path class="cls-1" d="M129.86477,71.37765a1.25217,1.25217,0,1,0-1.76983.00093l.00151.00151a1.24924,1.24924,0,0,0,1.7667-.00081Z" transform="translate(0.00003 -0.0056)"/><path class="cls-1" d="M129.86477,14.742a1.25215,1.25215,0,1,0-1.76989.001l.00152.00151a1.2493,1.2493,0,0,0,1.76678-.0009Z" transform="translate(0.00003 -0.0056)"/><path class="cls-1" d="M136.9455,21.82275a1.25213,1.25213,0,1,0-1.77081,0A1.25212,1.25212,0,0,0,136.9455,21.82275Z" transform="translate(0.00003 -0.0056)"/><path class="cls-1" d="M135.17469,50.14035a1.2522,1.2522,0,1,0,0-1.77093,1.2522,1.2522,0,0,0,0,1.77093Z" transform="translate(0.00003 -0.0056)"/><path class="cls-1" d="M129.86477,41.2887a1.25214,1.25214,0,0,0-1.77269,1.76886l.00194.002a1.25214,1.25214,0,1,0,1.77075-1.77081Z" transform="translate(0.00003 -0.0056)"/><path class="cls-1" d="M129.86477,113.85671a1.25215,1.25215,0,0,0-1.76741-1.77419l-.00339.00339a1.252,1.252,0,0,0-.00022,1.77058l.00022.00022A1.25447,1.25447,0,0,0,129.86477,113.85671Z" transform="translate(0.00003 -0.0056)"/><path class="cls-1" d="M136.94306,120.935a1.25214,1.25214,0,1,0-1.77079,0l.00242.00242a1.2491,1.2491,0,0,0,1.76648-.00053Z" transform="translate(0.00003 -0.0056)"/><path class="cls-1" d="M129.8672,126.24491a1.252,1.252,0,1,0-1.772,1.76911l.00146.00145a1.24922,1.24922,0,0,0,1.76666-.00077l.00147-.00147A1.25108,1.25108,0,0,0,129.8672,126.24491Z" transform="translate(0.00003 -0.0056)"/><path class="cls-1" d="M136.94526,135.09378a1.25217,1.25217,0,1,0-1.77083-.00062l.00026.00026A1.254,1.254,0,0,0,136.94526,135.09378Z" transform="translate(0.00003 -0.0056)"/><path class="cls-1" d="M135.17469,106.776a1.25217,1.25217,0,1,0-.0001-.0001Z" transform="translate(0.00003 -0.0056)"/><path class="cls-1" d="M129.8672,99.69769a1.25214,1.25214,0,1,0-1.77516-.00448l.00193.00194A1.255,1.255,0,0,0,129.8672,99.69769Z" transform="translate(0.00003 -0.0056)"/><path class="cls-1" d="M135.17226,92.61686a1.25216,1.25216,0,1,0,.005-1.77081l-.00257.00255A1.25734,1.25734,0,0,0,135.17226,92.61686Z" transform="translate(0.00003 -0.0056)"/><path class="cls-1" d="M129.86477,85.53868a1.25176,1.25176,0,0,0,.00057-1.77027l-.00029-.00029a1.25179,1.25179,0,0,0-1.7703-.00051l-.0005.00051a1.252,1.252,0,1,0,1.77052,1.77056Z" transform="translate(0.00003 -0.0056)"/><path class="cls-1" d="M.886,113.85672a1.25217,1.25217,0,0,0,0-1.7708A1.245,1.245,0,0,0,0,111.71877v2.50358A1.25022,1.25022,0,0,0,.886,113.85672Z" transform="translate(0.00003 -0.0056)"/><path class="cls-1" d="M.88625,28.9033a1.25215,1.25215,0,0,0,.00013-1.77075l-.00013-.00012A1.24754,1.24754,0,0,0,0,26.76583v2.503A1.25018,1.25018,0,0,0,.88625,28.9033Z" transform="translate(0.00003 -0.0056)"/><path class="cls-1" d="M.886,97.92435A1.247,1.247,0,0,0,0,97.56v2.503a1.25063,1.25063,0,0,0,.88847-.36526A1.25752,1.25752,0,0,0,.886,97.92435Z" transform="translate(0.00003 -0.0056)"/><path class="cls-1" d="M.886,57.22108a1.25217,1.25217,0,0,0,0-1.7708A1.24522,1.24522,0,0,0,0,55.08313v2.50364A1.25035,1.25035,0,0,0,.886,57.22108Z" transform="translate(0.00003 -0.0056)"/><path class="cls-1" d="M.886,85.53869a1.25186,1.25186,0,0,0,.00055-1.77032l-.00031-.00024A1.2476,1.2476,0,0,0,0,83.40147v2.50291A1.25027,1.25027,0,0,0,.886,85.53869Z" transform="translate(0.00003 -0.0056)"/><path class="cls-1" d="M0,125.87724v2.50346a1.24475,1.24475,0,0,0,.88452-.366l.00152-.00152a1.25115,1.25115,0,0,0,.00243-1.76832A1.25029,1.25029,0,0,0,0,125.87724Z" transform="translate(0.00003 -0.0056)"/><path class="cls-1" d="M.88844,69.6093A1.25035,1.25035,0,0,0,0,69.24172v2.50364a1.24494,1.24494,0,0,0,.8844-.36611L.886,71.37767A1.25132,1.25132,0,0,0,.88844,69.6093Z" transform="translate(0.00003 -0.0056)"/><path class="cls-1" d="M.886,41.28871A1.247,1.247,0,0,0,0,40.92436v2.503a1.25024,1.25024,0,0,0,.88847-.36532A1.25714,1.25714,0,0,0,.886,41.28871Z" transform="translate(0.00003 -0.0056)"/><path class="cls-1" d="M0,12.60615v2.50357a1.24473,1.24473,0,0,0,.8844-.36611L.886,14.742a1.25136,1.25136,0,0,0,.00243-1.76831A1.2504,1.2504,0,0,0,0,12.60615Z" transform="translate(0.00003 -0.0056)"/><path class="cls-1" d="M141.55393,113.85672a1.25255,1.25255,0,0,1,.886-2.13795v2.50358A1.25022,1.25022,0,0,1,141.55393,113.85672Z" transform="translate(0.00003 -0.0056)"/><path class="cls-1" d="M141.55369,28.9033a1.25215,1.25215,0,0,1-.00012-1.77075l.00012-.00012a1.24754,1.24754,0,0,1,.88628-.3666v2.503A1.25019,1.25019,0,0,1,141.55369,28.9033Z" transform="translate(0.00003 -0.0056)"/><path class="cls-1" d="M141.55393,97.92435a1.247,1.247,0,0,1,.886-.36435v2.503a1.25074,1.25074,0,0,1-.886-2.13862Z" transform="translate(0.00003 -0.0056)"/><path class="cls-1" d="M141.55393,57.22108a1.25255,1.25255,0,0,1,.886-2.138v2.50364A1.25035,1.25035,0,0,1,141.55393,57.22108Z" transform="translate(0.00003 -0.0056)"/><path class="cls-1" d="M141.55393,85.53869a1.25187,1.25187,0,0,1-.00055-1.77032l.00031-.00024a1.2476,1.2476,0,0,1,.88628-.36666v2.50291A1.25029,1.25029,0,0,1,141.55393,85.53869Z" transform="translate(0.00003 -0.0056)"/><path class="cls-1" d="M142.44,125.87724v2.50346a1.24477,1.24477,0,0,1-.88452-.366l-.00152-.00152a1.25058,1.25058,0,0,1,.886-2.136Z" transform="translate(0.00003 -0.0056)"/><path class="cls-1" d="M141.5515,69.6093a1.25035,1.25035,0,0,1,.88847-.36758v2.50364a1.24494,1.24494,0,0,1-.8844-.36611l-.00164-.00158A1.25133,1.25133,0,0,1,141.5515,69.6093Z" transform="translate(0.00003 -0.0056)"/><path class="cls-1" d="M141.55393,41.28871a1.247,1.247,0,0,1,.886-.36435v2.503a1.2508,1.2508,0,0,1-.886-2.13868Z" transform="translate(0.00003 -0.0056)"/><path class="cls-1" d="M142.44,12.60615v2.50357a1.24473,1.24473,0,0,1-.8844-.36611l-.00164-.00158a1.25051,1.25051,0,0,1,.886-2.13588Z" transform="translate(0.00003 -0.0056)"/><path class="cls-1" d="M27.53437.0056a1.24756,1.24756,0,0,0,.3663.883,1.25217,1.25217,0,0,0,1.7708-.00006A1.24767,1.24767,0,0,0,30.03771.0056Z" transform="translate(0.00003 -0.0056)"/><path class="cls-1" d="M40.45194.0056a2.49282,2.49282,0,0,0,.73222,1.76576,2.50076,2.50076,0,0,0,3.53663.00006A2.49231,2.49231,0,0,0,45.453.0056Z" transform="translate(0.00003 -0.0056)"/><path class="cls-1" d="M13.37329.0056a1.24767,1.24767,0,0,0,.36624.88294l.00006.00006a1.25217,1.25217,0,0,0,1.7708,0,1.248,1.248,0,0,0,.36624-.883Z" transform="translate(0.00003 -0.0056)"/><path class="cls-1" d="M55.85046.0056a1.24724,1.24724,0,0,0,.36581.88032A1.25213,1.25213,0,0,0,57.987.8858a1.24763,1.24763,0,0,0,.366-.8802Z" transform="translate(0.00003 -0.0056)"/><path class="cls-1" d="M0,.0056V1.25423A1.25027,1.25027,0,0,0,.886.8886a1.248,1.248,0,0,0,.36624-.883Z" transform="translate(0.00003 -0.0056)"/><path class="cls-1" d="M127.72765.0056a1.24754,1.24754,0,0,0,.36611.88276l.00018.00024a1.25451,1.25451,0,0,0,1.77081,0,1.2479,1.2479,0,0,0,.36623-.883Z" transform="translate(0.00003 -0.0056)"/><path class="cls-1" d="M111.24744.0056a2.49639,2.49639,0,0,0,.73077,1.76831,2.50261,2.50261,0,0,0,3.53918.00261A2.49462,2.49462,0,0,0,116.2515.0056Z" transform="translate(0.00003 -0.0056)"/><path class="cls-1" d="M141.1877.0056a1.2479,1.2479,0,0,0,.36623.883,1.25027,1.25027,0,0,0,.886.36563V.0056Z" transform="translate(0.00003 -0.0056)"/><path class="cls-1" d="M98.32648.0056a1.24766,1.24766,0,0,0,.36623.88294l.00006.00006a1.25211,1.25211,0,0,0,1.77075,0h.00006a1.24794,1.24794,0,0,0,.36623-.883Z" transform="translate(0.00003 -0.0056)"/><path class="cls-1" d="M84.17032.0056A1.24789,1.24789,0,0,0,84.53363.886,1.25759,1.25759,0,0,0,86.307.8886a1.24791,1.24791,0,0,0,.3663-.883Z" transform="translate(0.00003 -0.0056)"/><path class="cls-1" d="M70.00881.0056a1.24735,1.24735,0,0,0,.366.88263l.0003.00037a1.252,1.252,0,0,0,1.77026,0,1.24775,1.24775,0,0,0,.36648-.883Z" transform="translate(0.00003 -0.0056)"/><path class="cls-1" d="M27.54425,142.4456a1.25167,1.25167,0,0,1,2.50333,0Z" transform="translate(0.00003 -0.0056)"/><path class="cls-1" d="M40.46181,142.4456a2.50054,2.50054,0,0,1,5.00108,0Z" transform="translate(0.00003 -0.0056)"/><path class="cls-1" d="M13.38316,142.4456a1.2477,1.2477,0,0,1,.36624-.88294l.00006-.00006a1.25164,1.25164,0,0,1,2.137.883Z" transform="translate(0.00003 -0.0056)"/><path class="cls-1" d="M55.86033,142.4456a1.25128,1.25128,0,0,1,2.50255,0Z" transform="translate(0.00003 -0.0056)"/><path class="cls-1" d="M0,142.4456V141.197a1.25022,1.25022,0,0,1,.886.36563,1.24794,1.24794,0,0,1,.36624.883Z" transform="translate(0.00003 -0.0056)"/><path class="cls-1" d="M127.73752,142.4456a1.24749,1.24749,0,0,1,.36612-.88276l.00018-.00024a1.25164,1.25164,0,0,1,2.137.883Z" transform="translate(0.00003 -0.0056)"/><path class="cls-1" d="M111.25732,142.4456a2.502,2.502,0,1,1,5.004,0Z" transform="translate(0.00003 -0.0056)"/><path class="cls-1" d="M141.1877,142.4456A1.24937,1.24937,0,0,1,142.44,141.197v1.24863Z" transform="translate(0.00003 -0.0056)"/><path class="cls-1" d="M98.33635,142.4456a1.24769,1.24769,0,0,1,.36623-.88294l.00006-.00006a1.25211,1.25211,0,0,1,1.77075,0h.00006a1.24788,1.24788,0,0,1,.36623.883Z" transform="translate(0.00003 -0.0056)"/><path class="cls-1" d="M84.18019,142.4456a1.25149,1.25149,0,0,1,2.503,0Z" transform="translate(0.00003 -0.0056)"/><path class="cls-1" d="M70.01868,142.4456a1.24739,1.24739,0,0,1,.366-.88264l.00031-.00036a1.25161,1.25161,0,0,1,2.13673.883Z" transform="translate(0.00003 -0.0056)"/></svg>